<svg width="76" height="75" viewBox="0 0 76 75" fill="none" xmlns="http://www.w3.org/2000/svg">
<g clip-path="url(#clip0_1_24)">
<path d="M60.8 44.9774H38C35.9011 44.9774 34.2 46.6511 34.2 48.7161V52.4548C34.2 54.5199 35.9011 56.1935 38 56.1935H60.8C62.8989 56.1935 64.6 54.5199 64.6 52.4548V48.7161C64.6 46.6511 62.8989 44.9774 60.8 44.9774ZM60.8 52.4548H38V48.7161H60.8V52.4548Z" fill="#C2AB92"/>
<path d="M60.8 30.0226H38C35.9011 30.0226 34.2 31.6962 34.2 33.7613V37.5C34.2 39.5651 35.9011 41.2387 38 41.2387H60.8C62.8989 41.2387 64.6 39.5651 64.6 37.5V33.7613C64.6 31.6962 62.8989 30.0226 60.8 30.0226ZM60.8 37.5H38V33.7613H60.8V37.5Z" fill="#C2AB92"/>
<path d="M20.9 7.59032H13.3C12.25 7.59032 11.4 8.42656 11.4 9.45967V16.9371C11.4 17.9702 12.25 18.8064 13.3 18.8064H20.9C21.95 18.8064 22.8 17.9702 22.8 16.9371V9.45967C22.8 8.42656 21.95 7.59032 20.9 7.59032ZM19 15.0677H15.2V11.329H19V15.0677Z" fill="#C2AB92"/>
<path d="M36.1 7.59032H28.5C27.45 7.59032 26.6 8.42656 26.6 9.45967V16.9371C26.6 17.9702 27.45 18.8064 28.5 18.8064H36.1C37.15 18.8064 38 17.9702 38 16.9371V9.45967C38 8.42656 37.15 7.59032 36.1 7.59032ZM34.2 15.0677H30.4V11.329H34.2V15.0677Z" fill="#C2AB92"/>
<path d="M20.9 22.5452H13.3C12.25 22.5452 11.4 23.3814 11.4 24.4145V31.8919C11.4 32.925 12.25 33.7613 13.3 33.7613H20.9C21.95 33.7613 22.8 32.925 22.8 31.8919V24.4145C22.8 23.3814 21.95 22.5452 20.9 22.5452ZM19 30.0226H15.2V26.2839H19V30.0226Z" fill="#C2AB92"/>
<path d="M20.9 37.5H13.3C12.25 37.5 11.4 38.3362 11.4 39.3694V46.8468C11.4 47.8799 12.25 48.7161 13.3 48.7161H20.9C21.95 48.7161 22.8 47.8799 22.8 46.8468V39.3694C22.8 38.3362 21.95 37.5 20.9 37.5ZM19 44.9774H15.2V41.2387H19V44.9774Z" fill="#C2AB92"/>
<path d="M20.9 52.4548H13.3C12.25 52.4548 11.4 53.2911 11.4 54.3242V61.8016C11.4 62.8347 12.25 63.671 13.3 63.671H20.9C21.95 63.671 22.8 62.8347 22.8 61.8016V54.3242C22.8 53.2911 21.95 52.4548 20.9 52.4548ZM19 59.9323H15.2V56.1935H19V59.9323Z" fill="#C2AB92"/>
<path d="M74.1 71.1484H72.2V26.2839C72.2 24.2188 70.4989 22.5452 68.4 22.5452H30.4C28.3011 22.5452 26.6 24.2188 26.6 26.2839V71.1484H7.6V3.85161H41.8V18.8064H45.6V3.85161C45.6 1.78656 43.8989 0.1129 41.8 0.1129H7.6C5.50109 0.1129 3.8 1.78656 3.8 3.85161V71.1484H1.9C0.849953 71.1484 0 71.9846 0 73.0177C0 74.0509 0.849953 74.8871 1.9 74.8871H74.1C75.15 74.8871 76 74.0509 76 73.0177C76 71.9846 75.15 71.1484 74.1 71.1484ZM45.6 71.1484H38V63.671H45.6V71.1484ZM60.8 71.1484H57V63.671H60.8V71.1484ZM68.4 71.1484H64.6V63.671C64.6 61.6059 62.8989 59.9323 60.8 59.9323H57C54.9011 59.9323 53.2 61.6059 53.2 63.671V71.1484H49.4V63.671C49.4 61.6059 47.6989 59.9323 45.6 59.9323H38C35.9011 59.9323 34.2 61.6059 34.2 63.671V71.1484H30.4V26.2839H68.4V71.1484Z" fill="#C2AB92"/>
</g>
<defs>
<clipPath id="clip0_1_24">
<rect width="76" height="74.7742" fill="white" transform="translate(0 0.1129)"/>
</clipPath>
</defs>
</svg>
