<svg width="199" height="36" viewBox="0 0 199 36" fill="none" xmlns="http://www.w3.org/2000/svg">
<mask id="path-1-outside-1_0_1" maskUnits="userSpaceOnUse" x="-1" y="20.5" width="201" height="16" fill="black">
<rect fill="white" x="-1" y="20.5" width="201" height="16"/>
<path d="M5.769 22C6.855 22 7.743 22.159 8.433 22.477C9.123 22.789 9.633 23.233 9.963 23.809C10.293 24.379 10.458 25.054 10.458 25.834C10.458 26.614 10.293 27.283 9.963 27.841C9.633 28.393 9.123 28.819 8.433 29.119C7.743 29.413 6.855 29.56 5.769 29.56H3.798V35.275H5.409V35.5H0.468V35.275H2.079V22.225H0.468V22H5.769ZM3.798 29.335H5.769C6.201 29.335 6.585 29.23 6.921 29.02C7.257 28.81 7.539 28.534 7.767 28.192C7.995 27.844 8.169 27.466 8.289 27.058C8.409 26.644 8.469 26.236 8.469 25.834C8.469 25.432 8.409 25.021 8.289 24.601C8.169 24.181 7.995 23.791 7.767 23.431C7.539 23.071 7.257 22.78 6.921 22.558C6.585 22.336 6.201 22.225 5.769 22.225H3.798V29.335ZM17.1883 28.66V28.525H19.8883C20.4643 28.525 20.9533 28.402 21.3553 28.156C21.7573 27.904 22.0633 27.547 22.2733 27.085C22.4833 26.617 22.5883 26.056 22.5883 25.402C22.5883 24.748 22.4833 24.184 22.2733 23.71C22.0633 23.23 21.7573 22.864 21.3553 22.612C20.9533 22.354 20.4643 22.225 19.8883 22.225H13.9483V22H19.8883C20.7943 22 21.5833 22.123 22.2553 22.369C22.9333 22.609 23.4583 22.981 23.8303 23.485C24.2023 23.983 24.3883 24.622 24.3883 25.402C24.3883 26.182 24.2143 26.812 23.8663 27.292C23.5183 27.766 23.0083 28.114 22.3363 28.336C21.6703 28.552 20.8543 28.66 19.8883 28.66H17.1883ZM13.9483 35.5V35.275H19.6183V35.5H13.9483ZM15.9193 35.383V22.153H17.6383V35.383H15.9193ZM24.2983 35.59C23.7763 35.59 23.3683 35.494 23.0743 35.302C22.7863 35.11 22.5763 34.852 22.4443 34.528C22.3123 34.198 22.2283 33.832 22.1923 33.43C22.1623 33.022 22.1443 32.602 22.1383 32.17C22.1323 31.738 22.1083 31.321 22.0663 30.919C22.0243 30.511 21.9313 30.145 21.7873 29.821C21.6433 29.491 21.4123 29.23 21.0943 29.038C20.7823 28.846 20.3503 28.75 19.7983 28.75H17.1883V28.624H20.1583C21.0223 28.624 21.7093 28.747 22.2193 28.993C22.7353 29.233 23.1223 29.551 23.3803 29.947C23.6383 30.343 23.8093 30.781 23.8933 31.261C23.9833 31.735 24.0313 32.212 24.0373 32.692C24.0433 33.166 24.0553 33.601 24.0733 33.997C24.0913 34.393 24.1543 34.711 24.2623 34.951C24.3763 35.191 24.5863 35.311 24.8923 35.311C25.0843 35.311 25.2583 35.293 25.4143 35.257C25.5703 35.215 25.7113 35.164 25.8373 35.104L25.9183 35.311C25.7743 35.389 25.5613 35.455 25.2793 35.509C24.9973 35.563 24.6703 35.59 24.2983 35.59ZM28.9052 35.5V35.275H30.5162V22.225H28.9052V22H38.4362V25.69H38.2202C38.2202 25.048 38.1212 24.466 37.9232 23.944C37.7312 23.416 37.4192 22.999 36.9872 22.693C36.5612 22.381 35.9972 22.225 35.2952 22.225H32.2352V35.275H35.1152C35.9372 35.275 36.5852 35.116 37.0592 34.798C37.5392 34.474 37.8812 34.027 38.0852 33.457C38.2952 32.881 38.4002 32.212 38.4002 31.45H38.6252V35.5H28.9052ZM35.1602 30.487C35.1602 30.085 35.0762 29.746 34.9082 29.47C34.7462 29.194 34.5242 28.987 34.2422 28.849C33.9662 28.705 33.6572 28.633 33.3152 28.633H31.6862V28.408H33.3152C33.6572 28.408 33.9662 28.345 34.2422 28.219C34.5242 28.087 34.7462 27.889 34.9082 27.625C35.0762 27.361 35.1602 27.028 35.1602 26.626H35.3852V30.487H35.1602ZM48.4265 35.68L43.4225 22H45.1415L49.2995 33.223L53.2235 22H53.4665L48.6965 35.68H48.4265ZM43.5305 22V35.275H44.8895V35.5H42.0095V35.275H43.3055V22.225H41.9285V22H43.5305ZM56.3735 22V22.225H55.1135V35.275H56.3735V35.5H51.9545V35.275H53.4035V22H56.3735ZM59.4517 35.5V35.275H61.4227V22.225H59.4517V22H65.3017V22.225H63.1417V35.275H65.3017V35.5H59.4517ZM68.3969 35.5V35.275H70.0079V22.225H68.3969V22H77.9279V25.69H77.7119C77.7119 25.048 77.6129 24.466 77.4149 23.944C77.2229 23.416 76.9109 22.999 76.4789 22.693C76.0529 22.381 75.4889 22.225 74.7869 22.225H71.7269V35.275H74.6069C75.4289 35.275 76.0769 35.116 76.5509 34.798C77.0309 34.474 77.3729 34.027 77.5769 33.457C77.7869 32.881 77.8919 32.212 77.8919 31.45H78.1169V35.5H68.3969ZM74.6519 30.487C74.6519 30.085 74.5679 29.746 74.3999 29.47C74.2379 29.194 74.0159 28.987 73.7339 28.849C73.4579 28.705 73.1489 28.633 72.8069 28.633H71.1779V28.408H72.8069C73.1489 28.408 73.4579 28.345 73.7339 28.219C74.0159 28.087 74.2379 27.889 74.3999 27.625C74.5679 27.361 74.6519 27.028 74.6519 26.626H74.8769V30.487H74.6519ZM84.6602 28.66V28.525H87.3602C87.9362 28.525 88.4252 28.402 88.8272 28.156C89.2292 27.904 89.5352 27.547 89.7452 27.085C89.9552 26.617 90.0602 26.056 90.0602 25.402C90.0602 24.748 89.9552 24.184 89.7452 23.71C89.5352 23.23 89.2292 22.864 88.8272 22.612C88.4252 22.354 87.9362 22.225 87.3602 22.225H81.4202V22H87.3602C88.2662 22 89.0552 22.123 89.7272 22.369C90.4052 22.609 90.9302 22.981 91.3022 23.485C91.6742 23.983 91.8602 24.622 91.8602 25.402C91.8602 26.182 91.6862 26.812 91.3382 27.292C90.9902 27.766 90.4802 28.114 89.8082 28.336C89.1422 28.552 88.3262 28.66 87.3602 28.66H84.6602ZM81.4202 35.5V35.275H87.0902V35.5H81.4202ZM83.3912 35.383V22.153H85.1102V35.383H83.3912ZM91.7702 35.59C91.2482 35.59 90.8402 35.494 90.5462 35.302C90.2582 35.11 90.0482 34.852 89.9162 34.528C89.7842 34.198 89.7002 33.832 89.6642 33.43C89.6342 33.022 89.6162 32.602 89.6102 32.17C89.6042 31.738 89.5802 31.321 89.5382 30.919C89.4962 30.511 89.4032 30.145 89.2592 29.821C89.1152 29.491 88.8842 29.23 88.5662 29.038C88.2542 28.846 87.8222 28.75 87.2702 28.75H84.6602V28.624H87.6302C88.4942 28.624 89.1812 28.747 89.6912 28.993C90.2072 29.233 90.5942 29.551 90.8522 29.947C91.1102 30.343 91.2812 30.781 91.3652 31.261C91.4552 31.735 91.5032 32.212 91.5092 32.692C91.5152 33.166 91.5272 33.601 91.5452 33.997C91.5632 34.393 91.6262 34.711 91.7342 34.951C91.8482 35.191 92.0582 35.311 92.3642 35.311C92.5562 35.311 92.7302 35.293 92.8862 35.257C93.0422 35.215 93.1832 35.164 93.3092 35.104L93.3902 35.311C93.2462 35.389 93.0332 35.455 92.7512 35.509C92.4692 35.563 92.1422 35.59 91.7702 35.59ZM103.037 35.5V35.275H104.648V22.225H103.037V22H107.978V22.225H106.367V35.275H109.148C109.856 35.275 110.426 35.185 110.858 35.005C111.296 34.819 111.629 34.558 111.857 34.222C112.085 33.886 112.238 33.484 112.316 33.016C112.394 32.542 112.433 32.02 112.433 31.45H112.658V35.5H103.037ZM121.989 35.68C121.071 35.68 120.255 35.503 119.541 35.149C118.833 34.789 118.23 34.291 117.732 33.655C117.24 33.019 116.865 32.284 116.607 31.45C116.355 30.61 116.229 29.71 116.229 28.75C116.229 27.79 116.364 26.893 116.634 26.059C116.904 25.219 117.291 24.481 117.795 23.845C118.305 23.209 118.914 22.714 119.622 22.36C120.33 22 121.119 21.82 121.989 21.82C122.859 21.82 123.645 22 124.347 22.36C125.055 22.714 125.661 23.209 126.165 23.845C126.675 24.481 127.065 25.219 127.335 26.059C127.605 26.893 127.74 27.79 127.74 28.75C127.74 29.71 127.611 30.61 127.353 31.45C127.101 32.284 126.726 33.019 126.228 33.655C125.736 34.291 125.133 34.789 124.419 35.149C123.711 35.503 122.901 35.68 121.989 35.68ZM121.989 35.473C122.769 35.473 123.402 35.281 123.888 34.897C124.374 34.507 124.746 33.988 125.004 33.34C125.262 32.692 125.439 31.969 125.535 31.171C125.631 30.373 125.679 29.566 125.679 28.75C125.679 27.934 125.622 27.127 125.508 26.329C125.4 25.531 125.208 24.808 124.932 24.16C124.662 23.512 124.287 22.996 123.807 22.612C123.333 22.222 122.727 22.027 121.989 22.027C121.251 22.027 120.642 22.222 120.162 22.612C119.682 22.996 119.304 23.512 119.028 24.16C118.758 24.808 118.566 25.531 118.452 26.329C118.344 27.127 118.29 27.934 118.29 28.75C118.29 29.566 118.338 30.373 118.434 31.171C118.53 31.969 118.707 32.692 118.965 33.34C119.223 33.988 119.595 34.507 120.081 34.897C120.567 35.281 121.203 35.473 121.989 35.473ZM136.294 22C137.632 22 138.784 22.297 139.75 22.891C140.722 23.479 141.469 24.283 141.991 25.303C142.519 26.323 142.783 27.472 142.783 28.75C142.783 29.71 142.624 30.601 142.306 31.423C141.994 32.239 141.55 32.953 140.974 33.565C140.404 34.177 139.72 34.654 138.922 34.996C138.13 35.332 137.254 35.5 136.294 35.5H131.263V35.275H132.874V22.225H131.263V22H136.294ZM134.593 35.275H136.294C137.122 35.275 137.818 35.092 138.382 34.726C138.946 34.36 139.399 33.868 139.741 33.25C140.083 32.626 140.329 31.924 140.479 31.144C140.629 30.364 140.704 29.566 140.704 28.75C140.704 27.934 140.62 27.136 140.452 26.356C140.284 25.576 140.023 24.877 139.669 24.259C139.321 23.635 138.868 23.14 138.31 22.774C137.752 22.408 137.08 22.225 136.294 22.225H134.593V35.275ZM153.733 30.244H158.602V30.496H157.513V32.53C157.375 32.812 157.177 33.133 156.919 33.493C156.661 33.853 156.331 34.201 155.929 34.537C155.533 34.867 155.056 35.14 154.498 35.356C153.946 35.572 153.304 35.68 152.572 35.68C151.324 35.68 150.262 35.383 149.386 34.789C148.516 34.189 147.853 33.367 147.397 32.323C146.947 31.279 146.722 30.088 146.722 28.75C146.722 27.748 146.866 26.827 147.154 25.987C147.448 25.141 147.865 24.406 148.405 23.782C148.945 23.158 149.59 22.675 150.34 22.333C151.09 21.991 151.921 21.82 152.833 21.82C153.433 21.82 154.003 21.925 154.543 22.135C155.083 22.345 155.551 22.636 155.947 23.008L156.955 22H157.162V25.69H156.928C156.916 25.144 156.799 24.652 156.577 24.214C156.361 23.776 156.07 23.401 155.704 23.089C155.338 22.771 154.924 22.528 154.462 22.36C154 22.192 153.517 22.108 153.013 22.108C152.233 22.108 151.573 22.297 151.033 22.675C150.493 23.053 150.058 23.563 149.728 24.205C149.398 24.841 149.158 25.555 149.008 26.347C148.858 27.133 148.783 27.934 148.783 28.75C148.783 29.566 148.837 30.373 148.945 31.171C149.059 31.969 149.254 32.689 149.53 33.331C149.812 33.973 150.199 34.489 150.691 34.879C151.183 35.263 151.81 35.455 152.572 35.455C153.13 35.455 153.595 35.362 153.967 35.176C154.339 34.984 154.639 34.759 154.867 34.501C155.095 34.243 155.266 33.994 155.38 33.754C155.5 33.514 155.584 33.346 155.632 33.25V30.496H153.733V30.244ZM161.546 35.5V35.275H163.517V22.225H161.546V22H167.396V22.225H165.236V35.275H167.396V35.5H161.546ZM172.543 22V35.275H174.685V35.5H170.491V35.275H172.309V22.225H170.491V22H172.543ZM183.172 22V22.225H181.282V35.68H180.976L172.381 22H174.442L181.057 32.737V22.225H178.942V22H183.172ZM193.7 30.244H198.569V30.496H197.48V32.53C197.342 32.812 197.144 33.133 196.886 33.493C196.628 33.853 196.298 34.201 195.896 34.537C195.5 34.867 195.023 35.14 194.465 35.356C193.913 35.572 193.271 35.68 192.539 35.68C191.291 35.68 190.229 35.383 189.353 34.789C188.483 34.189 187.82 33.367 187.364 32.323C186.914 31.279 186.689 30.088 186.689 28.75C186.689 27.748 186.833 26.827 187.121 25.987C187.415 25.141 187.832 24.406 188.372 23.782C188.912 23.158 189.557 22.675 190.307 22.333C191.057 21.991 191.888 21.82 192.8 21.82C193.4 21.82 193.97 21.925 194.51 22.135C195.05 22.345 195.518 22.636 195.914 23.008L196.922 22H197.129V25.69H196.895C196.883 25.144 196.766 24.652 196.544 24.214C196.328 23.776 196.037 23.401 195.671 23.089C195.305 22.771 194.891 22.528 194.429 22.36C193.967 22.192 193.484 22.108 192.98 22.108C192.2 22.108 191.54 22.297 191 22.675C190.46 23.053 190.025 23.563 189.695 24.205C189.365 24.841 189.125 25.555 188.975 26.347C188.825 27.133 188.75 27.934 188.75 28.75C188.75 29.566 188.804 30.373 188.912 31.171C189.026 31.969 189.221 32.689 189.497 33.331C189.779 33.973 190.166 34.489 190.658 34.879C191.15 35.263 191.777 35.455 192.539 35.455C193.097 35.455 193.562 35.362 193.934 35.176C194.306 34.984 194.606 34.759 194.834 34.501C195.062 34.243 195.233 33.994 195.347 33.754C195.467 33.514 195.551 33.346 195.599 33.25V30.496H193.7V30.244Z"/>
</mask>
<path d="M5.769 22C6.855 22 7.743 22.159 8.433 22.477C9.123 22.789 9.633 23.233 9.963 23.809C10.293 24.379 10.458 25.054 10.458 25.834C10.458 26.614 10.293 27.283 9.963 27.841C9.633 28.393 9.123 28.819 8.433 29.119C7.743 29.413 6.855 29.56 5.769 29.56H3.798V35.275H5.409V35.5H0.468V35.275H2.079V22.225H0.468V22H5.769ZM3.798 29.335H5.769C6.201 29.335 6.585 29.23 6.921 29.02C7.257 28.81 7.539 28.534 7.767 28.192C7.995 27.844 8.169 27.466 8.289 27.058C8.409 26.644 8.469 26.236 8.469 25.834C8.469 25.432 8.409 25.021 8.289 24.601C8.169 24.181 7.995 23.791 7.767 23.431C7.539 23.071 7.257 22.78 6.921 22.558C6.585 22.336 6.201 22.225 5.769 22.225H3.798V29.335ZM17.1883 28.66V28.525H19.8883C20.4643 28.525 20.9533 28.402 21.3553 28.156C21.7573 27.904 22.0633 27.547 22.2733 27.085C22.4833 26.617 22.5883 26.056 22.5883 25.402C22.5883 24.748 22.4833 24.184 22.2733 23.71C22.0633 23.23 21.7573 22.864 21.3553 22.612C20.9533 22.354 20.4643 22.225 19.8883 22.225H13.9483V22H19.8883C20.7943 22 21.5833 22.123 22.2553 22.369C22.9333 22.609 23.4583 22.981 23.8303 23.485C24.2023 23.983 24.3883 24.622 24.3883 25.402C24.3883 26.182 24.2143 26.812 23.8663 27.292C23.5183 27.766 23.0083 28.114 22.3363 28.336C21.6703 28.552 20.8543 28.66 19.8883 28.66H17.1883ZM13.9483 35.5V35.275H19.6183V35.5H13.9483ZM15.9193 35.383V22.153H17.6383V35.383H15.9193ZM24.2983 35.59C23.7763 35.59 23.3683 35.494 23.0743 35.302C22.7863 35.11 22.5763 34.852 22.4443 34.528C22.3123 34.198 22.2283 33.832 22.1923 33.43C22.1623 33.022 22.1443 32.602 22.1383 32.17C22.1323 31.738 22.1083 31.321 22.0663 30.919C22.0243 30.511 21.9313 30.145 21.7873 29.821C21.6433 29.491 21.4123 29.23 21.0943 29.038C20.7823 28.846 20.3503 28.75 19.7983 28.75H17.1883V28.624H20.1583C21.0223 28.624 21.7093 28.747 22.2193 28.993C22.7353 29.233 23.1223 29.551 23.3803 29.947C23.6383 30.343 23.8093 30.781 23.8933 31.261C23.9833 31.735 24.0313 32.212 24.0373 32.692C24.0433 33.166 24.0553 33.601 24.0733 33.997C24.0913 34.393 24.1543 34.711 24.2623 34.951C24.3763 35.191 24.5863 35.311 24.8923 35.311C25.0843 35.311 25.2583 35.293 25.4143 35.257C25.5703 35.215 25.7113 35.164 25.8373 35.104L25.9183 35.311C25.7743 35.389 25.5613 35.455 25.2793 35.509C24.9973 35.563 24.6703 35.59 24.2983 35.59ZM28.9052 35.5V35.275H30.5162V22.225H28.9052V22H38.4362V25.69H38.2202C38.2202 25.048 38.1212 24.466 37.9232 23.944C37.7312 23.416 37.4192 22.999 36.9872 22.693C36.5612 22.381 35.9972 22.225 35.2952 22.225H32.2352V35.275H35.1152C35.9372 35.275 36.5852 35.116 37.0592 34.798C37.5392 34.474 37.8812 34.027 38.0852 33.457C38.2952 32.881 38.4002 32.212 38.4002 31.45H38.6252V35.5H28.9052ZM35.1602 30.487C35.1602 30.085 35.0762 29.746 34.9082 29.47C34.7462 29.194 34.5242 28.987 34.2422 28.849C33.9662 28.705 33.6572 28.633 33.3152 28.633H31.6862V28.408H33.3152C33.6572 28.408 33.9662 28.345 34.2422 28.219C34.5242 28.087 34.7462 27.889 34.9082 27.625C35.0762 27.361 35.1602 27.028 35.1602 26.626H35.3852V30.487H35.1602ZM48.4265 35.68L43.4225 22H45.1415L49.2995 33.223L53.2235 22H53.4665L48.6965 35.68H48.4265ZM43.5305 22V35.275H44.8895V35.5H42.0095V35.275H43.3055V22.225H41.9285V22H43.5305ZM56.3735 22V22.225H55.1135V35.275H56.3735V35.5H51.9545V35.275H53.4035V22H56.3735ZM59.4517 35.5V35.275H61.4227V22.225H59.4517V22H65.3017V22.225H63.1417V35.275H65.3017V35.5H59.4517ZM68.3969 35.5V35.275H70.0079V22.225H68.3969V22H77.9279V25.69H77.7119C77.7119 25.048 77.6129 24.466 77.4149 23.944C77.2229 23.416 76.9109 22.999 76.4789 22.693C76.0529 22.381 75.4889 22.225 74.7869 22.225H71.7269V35.275H74.6069C75.4289 35.275 76.0769 35.116 76.5509 34.798C77.0309 34.474 77.3729 34.027 77.5769 33.457C77.7869 32.881 77.8919 32.212 77.8919 31.45H78.1169V35.5H68.3969ZM74.6519 30.487C74.6519 30.085 74.5679 29.746 74.3999 29.47C74.2379 29.194 74.0159 28.987 73.7339 28.849C73.4579 28.705 73.1489 28.633 72.8069 28.633H71.1779V28.408H72.8069C73.1489 28.408 73.4579 28.345 73.7339 28.219C74.0159 28.087 74.2379 27.889 74.3999 27.625C74.5679 27.361 74.6519 27.028 74.6519 26.626H74.8769V30.487H74.6519ZM84.6602 28.66V28.525H87.3602C87.9362 28.525 88.4252 28.402 88.8272 28.156C89.2292 27.904 89.5352 27.547 89.7452 27.085C89.9552 26.617 90.0602 26.056 90.0602 25.402C90.0602 24.748 89.9552 24.184 89.7452 23.71C89.5352 23.23 89.2292 22.864 88.8272 22.612C88.4252 22.354 87.9362 22.225 87.3602 22.225H81.4202V22H87.3602C88.2662 22 89.0552 22.123 89.7272 22.369C90.4052 22.609 90.9302 22.981 91.3022 23.485C91.6742 23.983 91.8602 24.622 91.8602 25.402C91.8602 26.182 91.6862 26.812 91.3382 27.292C90.9902 27.766 90.4802 28.114 89.8082 28.336C89.1422 28.552 88.3262 28.66 87.3602 28.66H84.6602ZM81.4202 35.5V35.275H87.0902V35.5H81.4202ZM83.3912 35.383V22.153H85.1102V35.383H83.3912ZM91.7702 35.59C91.2482 35.59 90.8402 35.494 90.5462 35.302C90.2582 35.11 90.0482 34.852 89.9162 34.528C89.7842 34.198 89.7002 33.832 89.6642 33.43C89.6342 33.022 89.6162 32.602 89.6102 32.17C89.6042 31.738 89.5802 31.321 89.5382 30.919C89.4962 30.511 89.4032 30.145 89.2592 29.821C89.1152 29.491 88.8842 29.23 88.5662 29.038C88.2542 28.846 87.8222 28.75 87.2702 28.75H84.6602V28.624H87.6302C88.4942 28.624 89.1812 28.747 89.6912 28.993C90.2072 29.233 90.5942 29.551 90.8522 29.947C91.1102 30.343 91.2812 30.781 91.3652 31.261C91.4552 31.735 91.5032 32.212 91.5092 32.692C91.5152 33.166 91.5272 33.601 91.5452 33.997C91.5632 34.393 91.6262 34.711 91.7342 34.951C91.8482 35.191 92.0582 35.311 92.3642 35.311C92.5562 35.311 92.7302 35.293 92.8862 35.257C93.0422 35.215 93.1832 35.164 93.3092 35.104L93.3902 35.311C93.2462 35.389 93.0332 35.455 92.7512 35.509C92.4692 35.563 92.1422 35.59 91.7702 35.59ZM103.037 35.5V35.275H104.648V22.225H103.037V22H107.978V22.225H106.367V35.275H109.148C109.856 35.275 110.426 35.185 110.858 35.005C111.296 34.819 111.629 34.558 111.857 34.222C112.085 33.886 112.238 33.484 112.316 33.016C112.394 32.542 112.433 32.02 112.433 31.45H112.658V35.5H103.037ZM121.989 35.68C121.071 35.68 120.255 35.503 119.541 35.149C118.833 34.789 118.23 34.291 117.732 33.655C117.24 33.019 116.865 32.284 116.607 31.45C116.355 30.61 116.229 29.71 116.229 28.75C116.229 27.79 116.364 26.893 116.634 26.059C116.904 25.219 117.291 24.481 117.795 23.845C118.305 23.209 118.914 22.714 119.622 22.36C120.33 22 121.119 21.82 121.989 21.82C122.859 21.82 123.645 22 124.347 22.36C125.055 22.714 125.661 23.209 126.165 23.845C126.675 24.481 127.065 25.219 127.335 26.059C127.605 26.893 127.74 27.79 127.74 28.75C127.74 29.71 127.611 30.61 127.353 31.45C127.101 32.284 126.726 33.019 126.228 33.655C125.736 34.291 125.133 34.789 124.419 35.149C123.711 35.503 122.901 35.68 121.989 35.68ZM121.989 35.473C122.769 35.473 123.402 35.281 123.888 34.897C124.374 34.507 124.746 33.988 125.004 33.34C125.262 32.692 125.439 31.969 125.535 31.171C125.631 30.373 125.679 29.566 125.679 28.75C125.679 27.934 125.622 27.127 125.508 26.329C125.4 25.531 125.208 24.808 124.932 24.16C124.662 23.512 124.287 22.996 123.807 22.612C123.333 22.222 122.727 22.027 121.989 22.027C121.251 22.027 120.642 22.222 120.162 22.612C119.682 22.996 119.304 23.512 119.028 24.16C118.758 24.808 118.566 25.531 118.452 26.329C118.344 27.127 118.29 27.934 118.29 28.75C118.29 29.566 118.338 30.373 118.434 31.171C118.53 31.969 118.707 32.692 118.965 33.34C119.223 33.988 119.595 34.507 120.081 34.897C120.567 35.281 121.203 35.473 121.989 35.473ZM136.294 22C137.632 22 138.784 22.297 139.75 22.891C140.722 23.479 141.469 24.283 141.991 25.303C142.519 26.323 142.783 27.472 142.783 28.75C142.783 29.71 142.624 30.601 142.306 31.423C141.994 32.239 141.55 32.953 140.974 33.565C140.404 34.177 139.72 34.654 138.922 34.996C138.13 35.332 137.254 35.5 136.294 35.5H131.263V35.275H132.874V22.225H131.263V22H136.294ZM134.593 35.275H136.294C137.122 35.275 137.818 35.092 138.382 34.726C138.946 34.36 139.399 33.868 139.741 33.25C140.083 32.626 140.329 31.924 140.479 31.144C140.629 30.364 140.704 29.566 140.704 28.75C140.704 27.934 140.62 27.136 140.452 26.356C140.284 25.576 140.023 24.877 139.669 24.259C139.321 23.635 138.868 23.14 138.31 22.774C137.752 22.408 137.08 22.225 136.294 22.225H134.593V35.275ZM153.733 30.244H158.602V30.496H157.513V32.53C157.375 32.812 157.177 33.133 156.919 33.493C156.661 33.853 156.331 34.201 155.929 34.537C155.533 34.867 155.056 35.14 154.498 35.356C153.946 35.572 153.304 35.68 152.572 35.68C151.324 35.68 150.262 35.383 149.386 34.789C148.516 34.189 147.853 33.367 147.397 32.323C146.947 31.279 146.722 30.088 146.722 28.75C146.722 27.748 146.866 26.827 147.154 25.987C147.448 25.141 147.865 24.406 148.405 23.782C148.945 23.158 149.59 22.675 150.34 22.333C151.09 21.991 151.921 21.82 152.833 21.82C153.433 21.82 154.003 21.925 154.543 22.135C155.083 22.345 155.551 22.636 155.947 23.008L156.955 22H157.162V25.69H156.928C156.916 25.144 156.799 24.652 156.577 24.214C156.361 23.776 156.07 23.401 155.704 23.089C155.338 22.771 154.924 22.528 154.462 22.36C154 22.192 153.517 22.108 153.013 22.108C152.233 22.108 151.573 22.297 151.033 22.675C150.493 23.053 150.058 23.563 149.728 24.205C149.398 24.841 149.158 25.555 149.008 26.347C148.858 27.133 148.783 27.934 148.783 28.75C148.783 29.566 148.837 30.373 148.945 31.171C149.059 31.969 149.254 32.689 149.53 33.331C149.812 33.973 150.199 34.489 150.691 34.879C151.183 35.263 151.81 35.455 152.572 35.455C153.13 35.455 153.595 35.362 153.967 35.176C154.339 34.984 154.639 34.759 154.867 34.501C155.095 34.243 155.266 33.994 155.38 33.754C155.5 33.514 155.584 33.346 155.632 33.25V30.496H153.733V30.244ZM161.546 35.5V35.275H163.517V22.225H161.546V22H167.396V22.225H165.236V35.275H167.396V35.5H161.546ZM172.543 22V35.275H174.685V35.5H170.491V35.275H172.309V22.225H170.491V22H172.543ZM183.172 22V22.225H181.282V35.68H180.976L172.381 22H174.442L181.057 32.737V22.225H178.942V22H183.172ZM193.7 30.244H198.569V30.496H197.48V32.53C197.342 32.812 197.144 33.133 196.886 33.493C196.628 33.853 196.298 34.201 195.896 34.537C195.5 34.867 195.023 35.14 194.465 35.356C193.913 35.572 193.271 35.68 192.539 35.68C191.291 35.68 190.229 35.383 189.353 34.789C188.483 34.189 187.82 33.367 187.364 32.323C186.914 31.279 186.689 30.088 186.689 28.75C186.689 27.748 186.833 26.827 187.121 25.987C187.415 25.141 187.832 24.406 188.372 23.782C188.912 23.158 189.557 22.675 190.307 22.333C191.057 21.991 191.888 21.82 192.8 21.82C193.4 21.82 193.97 21.925 194.51 22.135C195.05 22.345 195.518 22.636 195.914 23.008L196.922 22H197.129V25.69H196.895C196.883 25.144 196.766 24.652 196.544 24.214C196.328 23.776 196.037 23.401 195.671 23.089C195.305 22.771 194.891 22.528 194.429 22.36C193.967 22.192 193.484 22.108 192.98 22.108C192.2 22.108 191.54 22.297 191 22.675C190.46 23.053 190.025 23.563 189.695 24.205C189.365 24.841 189.125 25.555 188.975 26.347C188.825 27.133 188.75 27.934 188.75 28.75C188.75 29.566 188.804 30.373 188.912 31.171C189.026 31.969 189.221 32.689 189.497 33.331C189.779 33.973 190.166 34.489 190.658 34.879C191.15 35.263 191.777 35.455 192.539 35.455C193.097 35.455 193.562 35.362 193.934 35.176C194.306 34.984 194.606 34.759 194.834 34.501C195.062 34.243 195.233 33.994 195.347 33.754C195.467 33.514 195.551 33.346 195.599 33.25V30.496H193.7V30.244Z" fill="#CBB26B"/>
<path d="M8.433 22.477L8.22372 22.9311L8.22699 22.9326L8.433 22.477ZM9.963 23.809L9.52915 24.0576L9.53029 24.0595L9.963 23.809ZM9.963 27.841L10.3922 28.0976L10.3934 28.0955L9.963 27.841ZM8.433 29.119L8.629 29.579L8.63236 29.5775L8.433 29.119ZM3.798 29.56V29.06H3.298V29.56H3.798ZM3.798 35.275H3.298V35.775H3.798V35.275ZM5.409 35.275H5.909V34.775H5.409V35.275ZM5.409 35.5V36H5.909V35.5H5.409ZM0.468 35.5H-0.032V36H0.468V35.5ZM0.468 35.275V34.775H-0.032V35.275H0.468ZM2.079 35.275V35.775H2.579V35.275H2.079ZM2.079 22.225H2.579V21.725H2.079V22.225ZM0.468 22.225H-0.032V22.725H0.468V22.225ZM0.468 22V21.5H-0.032V22H0.468ZM3.798 29.335H3.298V29.835H3.798V29.335ZM6.921 29.02L7.186 29.444L7.186 29.444L6.921 29.02ZM7.767 28.192L8.18304 28.4694L8.18523 28.466L7.767 28.192ZM8.289 27.058L8.76869 27.1991L8.76923 27.1972L8.289 27.058ZM8.289 24.601L8.76976 24.4636L8.76976 24.4636L8.289 24.601ZM7.767 23.431L8.18941 23.1635L8.18941 23.1635L7.767 23.431ZM6.921 22.558L7.19663 22.1408L7.19663 22.1408L6.921 22.558ZM3.798 22.225V21.725H3.298V22.225H3.798ZM5.769 22.5C6.81152 22.5 7.62124 22.6534 8.22372 22.9311L8.64228 22.0229C7.86476 21.6646 6.89848 21.5 5.769 21.5V22.5ZM8.22699 22.9326C8.83519 23.2076 9.2586 23.5853 9.52916 24.0576L10.3968 23.5604C10.0074 22.8807 9.41081 22.3704 8.63901 22.0214L8.22699 22.9326ZM9.53029 24.0595C9.80871 24.5404 9.958 25.1257 9.958 25.834H10.958C10.958 24.9823 10.7773 24.2176 10.3957 23.5585L9.53029 24.0595ZM9.958 25.834C9.958 26.5427 9.80858 27.1199 9.53263 27.5865L10.3934 28.0955C10.7774 27.4461 10.958 26.6853 10.958 25.834H9.958ZM9.53384 27.5844C9.26614 28.0322 8.8446 28.3948 8.23364 28.6605L8.63236 29.5775C9.4014 29.2432 9.99986 28.7538 10.3922 28.0976L9.53384 27.5844ZM8.23701 28.659C7.63021 28.9176 6.81537 29.06 5.769 29.06V30.06C6.89463 30.06 7.85579 29.9084 8.62899 29.579L8.23701 28.659ZM5.769 29.06H3.798V30.06H5.769V29.06ZM3.298 29.56V35.275H4.298V29.56H3.298ZM3.798 35.775H5.409V34.775H3.798V35.775ZM4.909 35.275V35.5H5.909V35.275H4.909ZM5.409 35H0.468V36H5.409V35ZM0.968 35.5V35.275H-0.032V35.5H0.968ZM0.468 35.775H2.079V34.775H0.468V35.775ZM2.579 35.275V22.225H1.579V35.275H2.579ZM2.079 21.725H0.468V22.725H2.079V21.725ZM0.968 22.225V22H-0.032V22.225H0.968ZM0.468 22.5H5.769V21.5H0.468V22.5ZM3.798 29.835H5.769V28.835H3.798V29.835ZM5.769 29.835C6.28593 29.835 6.76341 29.7081 7.186 29.444L6.656 28.596C6.40659 28.7519 6.11607 28.835 5.769 28.835V29.835ZM7.186 29.444C7.58444 29.195 7.91717 28.8681 8.18303 28.4693L7.35098 27.9146C7.16083 28.1999 6.92956 28.425 6.656 28.596L7.186 29.444ZM8.18523 28.466C8.44073 28.076 8.63515 27.6531 8.76868 27.1991L7.80932 26.9169C7.70286 27.2789 7.54928 27.612 7.34877 27.918L8.18523 28.466ZM8.76923 27.1972C8.9014 26.7412 8.969 26.2864 8.969 25.834H7.969C7.969 26.1856 7.9166 26.5468 7.80877 26.9188L8.76923 27.1972ZM8.969 25.834C8.969 25.3817 8.90143 24.9245 8.76976 24.4636L7.80824 24.7384C7.91657 25.1175 7.969 25.4823 7.969 25.834H8.969ZM8.76976 24.4636C8.63696 23.9988 8.44362 23.5649 8.18941 23.1635L7.34459 23.6985C7.54638 24.0171 7.70104 24.3632 7.80824 24.7384L8.76976 24.4636ZM8.18941 23.1635C7.92585 22.7473 7.59498 22.404 7.19663 22.1408L6.64537 22.9752C6.91903 23.156 7.15216 23.3947 7.34459 23.6985L8.18941 23.1635ZM7.19663 22.1408C6.77284 21.8608 6.29154 21.725 5.769 21.725V22.725C6.11046 22.725 6.39716 22.8112 6.64537 22.9752L7.19663 22.1408ZM5.769 21.725H3.798V22.725H5.769V21.725ZM3.298 22.225V29.335H4.298V22.225H3.298ZM17.1883 28.66H16.6883V29.16H17.1883V28.66ZM17.1883 28.525V28.025H16.6883V28.525H17.1883ZM21.3553 28.156L21.6163 28.5825L21.6209 28.5796L21.3553 28.156ZM22.2733 27.085L22.7285 27.2919L22.7295 27.2897L22.2733 27.085ZM22.2733 23.71L21.8152 23.9104L21.8162 23.9125L22.2733 23.71ZM21.3553 22.612L21.0852 23.0328L21.0897 23.0356L21.3553 22.612ZM13.9483 22.225H13.4483V22.725H13.9483V22.225ZM13.9483 22V21.5H13.4483V22H13.9483ZM22.2553 22.369L22.0834 22.8386L22.0885 22.8403L22.2553 22.369ZM23.8303 23.485L23.428 23.7819L23.4297 23.7842L23.8303 23.485ZM23.8663 27.292L24.2694 27.5879L24.2711 27.5855L23.8663 27.292ZM22.3363 28.336L22.4906 28.8116L22.4932 28.8108L22.3363 28.336ZM13.9483 35.5H13.4483V36H13.9483V35.5ZM13.9483 35.275V34.775H13.4483V35.275H13.9483ZM19.6183 35.275H20.1183V34.775H19.6183V35.275ZM19.6183 35.5V36H20.1183V35.5H19.6183ZM15.9193 35.383H15.4193V35.883H15.9193V35.383ZM15.9193 22.153V21.653H15.4193V22.153H15.9193ZM17.6383 22.153H18.1383V21.653H17.6383V22.153ZM17.6383 35.383V35.883H18.1383V35.383H17.6383ZM23.0743 35.302L22.797 35.718L22.8009 35.7206L23.0743 35.302ZM22.4443 34.528L21.9801 34.7137L21.9813 34.7166L22.4443 34.528ZM22.1923 33.43L21.6936 33.4667L21.6943 33.4746L22.1923 33.43ZM22.1383 32.17L22.6383 32.1631L22.6383 32.1631L22.1383 32.17ZM22.0663 30.919L21.5689 30.9702L21.569 30.971L22.0663 30.919ZM21.7873 29.821L21.329 30.021L21.3304 30.0241L21.7873 29.821ZM21.0943 29.038L20.8323 29.4638L20.8359 29.466L21.0943 29.038ZM17.1883 28.75H16.6883V29.25H17.1883V28.75ZM17.1883 28.624V28.124H16.6883V28.624H17.1883ZM22.2193 28.993L22.0021 29.4434L22.0084 29.4464L22.2193 28.993ZM23.3803 29.947L23.7992 29.6741L23.7992 29.6741L23.3803 29.947ZM23.8933 31.261L23.4007 31.3472L23.4021 31.3543L23.8933 31.261ZM24.0373 32.692L23.5374 32.6982L23.5374 32.6983L24.0373 32.692ZM24.0733 33.997L24.5728 33.9743L24.0733 33.997ZM24.2623 34.951L23.8063 35.1562L23.8107 35.1655L24.2623 34.951ZM25.4143 35.257L25.5267 35.7442L25.5356 35.7422L25.5443 35.7398L25.4143 35.257ZM25.8373 35.104L26.3029 34.9218L26.1072 34.4217L25.6223 34.6526L25.8373 35.104ZM25.9183 35.311L26.1565 35.7506L26.5449 35.5402L26.3839 35.1288L25.9183 35.311ZM25.2793 35.509L25.3733 36.0001L25.3733 36.0001L25.2793 35.509ZM17.6883 28.66V28.525H16.6883V28.66H17.6883ZM17.1883 29.025H19.8883V28.025H17.1883V29.025ZM19.8883 29.025C20.5359 29.025 21.1199 28.8862 21.6163 28.5825L21.0943 27.7295C20.7867 27.9178 20.3927 28.025 19.8883 28.025V29.025ZM21.6209 28.5796C22.1118 28.2719 22.4809 27.8367 22.7285 27.2919L21.8181 26.8781C21.6457 27.2573 21.4028 27.5361 21.0897 27.7324L21.6209 28.5796ZM22.7295 27.2897C22.9752 26.7422 23.0883 26.1079 23.0883 25.402H22.0883C22.0883 26.0041 21.9915 26.4918 21.8171 26.8803L22.7295 27.2897ZM23.0883 25.402C23.0883 24.6959 22.9751 24.0596 22.7305 23.5075L21.8162 23.9125C21.9916 24.3084 22.0883 24.8001 22.0883 25.402H23.0883ZM22.7314 23.5096C22.4855 22.9475 22.1168 22.4993 21.6209 22.1884L21.0897 23.0356C21.3978 23.2287 21.6411 23.5125 21.8152 23.9104L22.7314 23.5096ZM21.6254 22.1912C21.1275 21.8717 20.5402 21.725 19.8883 21.725V22.725C20.3885 22.725 20.7791 22.8363 21.0853 23.0328L21.6254 22.1912ZM19.8883 21.725H13.9483V22.725H19.8883V21.725ZM14.4483 22.225V22H13.4483V22.225H14.4483ZM13.9483 22.5H19.8883V21.5H13.9483V22.5ZM19.8883 22.5C20.7506 22.5 21.4789 22.6172 22.0834 22.8385L22.4272 21.8995C21.6877 21.6288 20.838 21.5 19.8883 21.5V22.5ZM22.0885 22.8403C22.6867 23.0521 23.1238 23.3697 23.428 23.7819L24.2326 23.1881C23.7928 22.5923 23.1799 22.1659 22.4222 21.8977L22.0885 22.8403ZM23.4297 23.7842C23.7223 24.1759 23.8883 24.702 23.8883 25.402H24.8883C24.8883 24.542 24.6823 23.7901 24.2309 23.1858L23.4297 23.7842ZM23.8883 25.402C23.8883 26.1096 23.7307 26.6272 23.4615 26.9985L24.2711 27.5855C24.6979 26.9968 24.8883 26.2544 24.8883 25.402H23.8883ZM23.4633 26.9961C23.1884 27.3705 22.7733 27.6651 22.1795 27.8612L22.4932 28.8108C23.2433 28.5629 23.8482 28.1615 24.2694 27.5879L23.4633 26.9961ZM22.1821 27.8604C21.5808 28.0554 20.8203 28.16 19.8883 28.16V29.16C20.8883 29.16 21.7598 29.0486 22.4906 28.8116L22.1821 27.8604ZM19.8883 28.16H17.1883V29.16H19.8883V28.16ZM14.4483 35.5V35.275H13.4483V35.5H14.4483ZM13.9483 35.775H19.6183V34.775H13.9483V35.775ZM19.1183 35.275V35.5H20.1183V35.275H19.1183ZM19.6183 35H13.9483V36H19.6183V35ZM16.4193 35.383V22.153H15.4193V35.383H16.4193ZM15.9193 22.653H17.6383V21.653H15.9193V22.653ZM17.1383 22.153V35.383H18.1383V22.153H17.1383ZM17.6383 34.883H15.9193V35.883H17.6383V34.883ZM24.2983 35.09C23.829 35.09 23.5299 35.0023 23.3477 34.8834L22.8009 35.7206C23.2068 35.9857 23.7236 36.09 24.2983 36.09V35.09ZM23.3517 34.886C23.1479 34.7501 23.002 34.5717 22.9074 34.3394L21.9813 34.7166C22.1506 35.1323 22.4248 35.4699 22.797 35.718L23.3517 34.886ZM22.9086 34.3423C22.7969 34.0631 22.7226 33.7454 22.6903 33.3854L21.6943 33.4746C21.7341 33.9186 21.8278 34.3329 21.9801 34.7137L22.9086 34.3423ZM22.691 33.3933C22.6617 32.9958 22.6441 32.5857 22.6383 32.1631L21.6384 32.1769C21.6445 32.6183 21.6629 33.0482 21.6937 33.4667L22.691 33.3933ZM22.6383 32.1631C22.6321 31.717 22.6073 31.285 22.5636 30.867L21.569 30.971C21.6094 31.357 21.6326 31.759 21.6384 32.1769L22.6383 32.1631ZM22.5637 30.8678C22.5171 30.4154 22.4127 29.997 22.2442 29.6179L21.3304 30.0241C21.4499 30.293 21.5315 30.6066 21.5689 30.9702L22.5637 30.8678ZM22.2456 29.621C22.0588 29.193 21.7564 28.8537 21.3527 28.61L20.8359 29.466C21.0683 29.6063 21.2278 29.789 21.329 30.021L22.2456 29.621ZM21.3564 28.6122C20.9353 28.353 20.3993 28.25 19.7983 28.25V29.25C20.3014 29.25 20.6294 29.339 20.8323 29.4638L21.3564 28.6122ZM19.7983 28.25H17.1883V29.25H19.7983V28.25ZM17.6883 28.75V28.624H16.6883V28.75H17.6883ZM17.1883 29.124H20.1583V28.124H17.1883V29.124ZM20.1583 29.124C20.983 29.124 21.5861 29.2427 22.0021 29.4433L22.4365 28.5427C21.8326 28.2513 21.0616 28.124 20.1583 28.124V29.124ZM22.0084 29.4464C22.457 29.655 22.7641 29.9171 22.9614 30.2199L23.7992 29.6741C23.4806 29.1849 23.0136 28.811 22.4302 28.5396L22.0084 29.4464ZM22.9614 30.2199C23.1813 30.5575 23.3281 30.9317 23.4008 31.3472L24.3858 31.1748C24.2905 30.6303 24.0953 30.1285 23.7992 29.6741L22.9614 30.2199ZM23.4021 31.3543C23.4867 31.7997 23.5317 32.2476 23.5374 32.6982L24.5373 32.6858C24.5309 32.1764 24.48 31.6703 24.3845 31.1677L23.4021 31.3543ZM23.5374 32.6983C23.5434 33.1768 23.5555 33.6173 23.5738 34.0197L24.5728 33.9743C24.5551 33.5847 24.5432 33.1552 24.5373 32.6857L23.5374 32.6983ZM23.5738 34.0197C23.5934 34.45 23.6628 34.8372 23.8064 35.1562L24.7183 34.7458C24.6458 34.5848 24.5892 34.336 24.5728 33.9743L23.5738 34.0197ZM23.8107 35.1655C23.907 35.3683 24.0548 35.5395 24.2572 35.6551C24.4553 35.7683 24.675 35.811 24.8923 35.811V34.811C24.8036 34.811 24.7653 34.7937 24.7534 34.7869C24.7458 34.7825 24.7316 34.7737 24.714 34.7365L23.8107 35.1655ZM24.8923 35.811C25.1149 35.811 25.3274 35.7902 25.5267 35.7442L25.3019 34.7698C25.1892 34.7958 25.0537 34.811 24.8923 34.811V35.811ZM25.5443 35.7398C25.7251 35.6911 25.8951 35.6303 26.0523 35.5554L25.6223 34.6526C25.5275 34.6977 25.4156 34.7389 25.2843 34.7742L25.5443 35.7398ZM25.3717 35.2862L25.4527 35.4932L26.3839 35.1288L26.3029 34.9218L25.3717 35.2862ZM25.6802 34.8714C25.603 34.9132 25.4488 34.9675 25.1853 35.0179L25.3733 36.0001C25.6739 35.9425 25.9457 35.8648 26.1565 35.7506L25.6802 34.8714ZM25.1853 35.0179C24.9418 35.0645 24.6475 35.09 24.2983 35.09V36.09C24.6932 36.09 25.0528 36.0615 25.3733 36.0001L25.1853 35.0179ZM28.9052 35.5H28.4052V36H28.9052V35.5ZM28.9052 35.275V34.775H28.4052V35.275H28.9052ZM30.5162 35.275V35.775H31.0162V35.275H30.5162ZM30.5162 22.225H31.0162V21.725H30.5162V22.225ZM28.9052 22.225H28.4052V22.725H28.9052V22.225ZM28.9052 22V21.5H28.4052V22H28.9052ZM38.4362 22H38.9362V21.5H38.4362V22ZM38.4362 25.69V26.19H38.9362V25.69H38.4362ZM38.2202 25.69H37.7202V26.19H38.2202V25.69ZM37.9232 23.944L37.4532 24.1149L37.4557 24.1213L37.9232 23.944ZM36.9872 22.693L36.6917 23.0964L36.6982 23.101L36.9872 22.693ZM32.2352 22.225V21.725H31.7352V22.225H32.2352ZM32.2352 35.275H31.7352V35.775H32.2352V35.275ZM37.0592 34.798L37.3378 35.2132L37.3389 35.2124L37.0592 34.798ZM38.0852 33.457L37.6154 33.2857L37.6144 33.2885L38.0852 33.457ZM38.4002 31.45V30.95H37.9002V31.45H38.4002ZM38.6252 31.45H39.1252V30.95H38.6252V31.45ZM38.6252 35.5V36H39.1252V35.5H38.6252ZM35.1602 30.487H34.6602V30.987H35.1602V30.487ZM34.9082 29.47L34.4769 29.7231L34.4811 29.73L34.9082 29.47ZM34.2422 28.849L34.0108 29.2924L34.0224 29.2981L34.2422 28.849ZM31.6862 28.633H31.1862V29.133H31.6862V28.633ZM31.6862 28.408V27.908H31.1862V28.408H31.6862ZM34.2422 28.219L34.4498 28.6739L34.4542 28.6718L34.2422 28.219ZM34.9082 27.625L34.4863 27.3565L34.482 27.3635L34.9082 27.625ZM35.1602 26.626V26.126H34.6602V26.626H35.1602ZM35.3852 26.626H35.8852V26.126H35.3852V26.626ZM35.3852 30.487V30.987H35.8852V30.487H35.3852ZM29.4052 35.5V35.275H28.4052V35.5H29.4052ZM28.9052 35.775H30.5162V34.775H28.9052V35.775ZM31.0162 35.275V22.225H30.0162V35.275H31.0162ZM30.5162 21.725H28.9052V22.725H30.5162V21.725ZM29.4052 22.225V22H28.4052V22.225H29.4052ZM28.9052 22.5H38.4362V21.5H28.9052V22.5ZM37.9362 22V25.69H38.9362V22H37.9362ZM38.4362 25.19H38.2202V26.19H38.4362V25.19ZM38.7202 25.69C38.7202 24.9964 38.6131 24.3531 38.3907 23.7667L37.4557 24.1213C37.6292 24.5789 37.7202 25.0996 37.7202 25.69H38.7202ZM38.3931 23.7731C38.1686 23.1557 37.7964 22.6535 37.2762 22.285L36.6982 23.101C37.0419 23.3445 37.2938 23.6763 37.4533 24.1149L38.3931 23.7731ZM37.2826 22.2896C36.7466 21.897 36.0687 21.725 35.2952 21.725V22.725C35.9256 22.725 36.3758 22.865 36.6918 23.0964L37.2826 22.2896ZM35.2952 21.725H32.2352V22.725H35.2952V21.725ZM31.7352 22.225V35.275H32.7352V22.225H31.7352ZM32.2352 35.775H35.1152V34.775H32.2352V35.775ZM35.1152 35.775C35.9948 35.775 36.7525 35.6059 37.3377 35.2132L36.7806 34.3828C36.4179 34.6261 35.8796 34.775 35.1152 34.775V35.775ZM37.3389 35.2124C37.9113 34.826 38.3178 34.2908 38.5559 33.6255L37.6144 33.2885C37.4446 33.7632 37.167 34.122 36.7795 34.3836L37.3389 35.2124ZM38.5549 33.6283C38.7891 32.9859 38.9002 32.2568 38.9002 31.45H37.9002C37.9002 32.1672 37.8012 32.7761 37.6154 33.2857L38.5549 33.6283ZM38.4002 31.95H38.6252V30.95H38.4002V31.95ZM38.1252 31.45V35.5H39.1252V31.45H38.1252ZM38.6252 35H28.9052V36H38.6252V35ZM35.6602 30.487C35.6602 30.0156 35.5613 29.5814 35.3353 29.21L34.4811 29.73C34.591 29.9106 34.6602 30.1544 34.6602 30.487H35.6602ZM35.3394 29.2169C35.1287 28.858 34.834 28.5819 34.462 28.3999L34.0224 29.2981C34.2144 29.3921 34.3637 29.53 34.477 29.7231L35.3394 29.2169ZM34.4735 28.4057C34.1192 28.2209 33.7296 28.133 33.3152 28.133V29.133C33.5847 29.133 33.8132 29.1891 34.0109 29.2923L34.4735 28.4057ZM33.3152 28.133H31.6862V29.133H33.3152V28.133ZM32.1862 28.633V28.408H31.1862V28.633H32.1862ZM31.6862 28.908H33.3152V27.908H31.6862V28.908ZM33.3152 28.908C33.7197 28.908 34.1008 28.8332 34.4498 28.6738L34.0345 27.7642C33.8316 27.8568 33.5947 27.908 33.3152 27.908V28.908ZM34.4542 28.6718C34.8242 28.4986 35.1209 28.2343 35.3343 27.8865L34.482 27.3635C34.3715 27.5437 34.2241 27.6754 34.0302 27.7662L34.4542 28.6718ZM35.33 27.8934C35.5617 27.5293 35.6602 27.0963 35.6602 26.626H34.6602C34.6602 26.9597 34.5906 27.1927 34.4864 27.3566L35.33 27.8934ZM35.1602 27.126H35.3852V26.126H35.1602V27.126ZM34.8852 26.626V30.487H35.8852V26.626H34.8852ZM35.3852 29.987H35.1602V30.987H35.3852V29.987ZM48.4265 35.68L47.9569 35.8518L48.077 36.18H48.4265V35.68ZM43.4225 22V21.5H42.7072L42.9529 22.1718L43.4225 22ZM45.1415 22L45.6103 21.8263L45.4894 21.5H45.1415V22ZM49.2995 33.223L48.8306 33.3967L49.3131 34.699L49.7715 33.388L49.2995 33.223ZM53.2235 22V21.5H52.8686L52.7515 21.835L53.2235 22ZM53.4665 22L53.9386 22.1646L54.1703 21.5H53.4665V22ZM48.6965 35.68V36.18H49.0516L49.1686 35.8446L48.6965 35.68ZM43.5305 22H44.0305V21.5H43.5305V22ZM43.5305 35.275H43.0305V35.775H43.5305V35.275ZM44.8895 35.275H45.3895V34.775H44.8895V35.275ZM44.8895 35.5V36H45.3895V35.5H44.8895ZM42.0095 35.5H41.5095V36H42.0095V35.5ZM42.0095 35.275V34.775H41.5095V35.275H42.0095ZM43.3055 35.275V35.775H43.8055V35.275H43.3055ZM43.3055 22.225H43.8055V21.725H43.3055V22.225ZM41.9285 22.225H41.4285V22.725H41.9285V22.225ZM41.9285 22V21.5H41.4285V22H41.9285ZM56.3735 22H56.8735V21.5H56.3735V22ZM56.3735 22.225V22.725H56.8735V22.225H56.3735ZM55.1135 22.225V21.725H54.6135V22.225H55.1135ZM55.1135 35.275H54.6135V35.775H55.1135V35.275ZM56.3735 35.275H56.8735V34.775H56.3735V35.275ZM56.3735 35.5V36H56.8735V35.5H56.3735ZM51.9545 35.5H51.4545V36H51.9545V35.5ZM51.9545 35.275V34.775H51.4545V35.275H51.9545ZM53.4035 35.275V35.775H53.9035V35.275H53.4035ZM53.4035 22V21.5H52.9035V22H53.4035ZM48.896 35.5082L43.892 21.8282L42.9529 22.1718L47.9569 35.8518L48.896 35.5082ZM43.4225 22.5H45.1415V21.5H43.4225V22.5ZM44.6726 22.1737L48.8306 33.3967L49.7683 33.0493L45.6103 21.8263L44.6726 22.1737ZM49.7715 33.388L53.6955 22.165L52.7515 21.835L48.8275 33.058L49.7715 33.388ZM53.2235 22.5H53.4665V21.5H53.2235V22.5ZM52.9943 21.8354L48.2243 35.5154L49.1686 35.8446L53.9386 22.1646L52.9943 21.8354ZM48.6965 35.18H48.4265V36.18H48.6965V35.18ZM43.0305 22V35.275H44.0305V22H43.0305ZM43.5305 35.775H44.8895V34.775H43.5305V35.775ZM44.3895 35.275V35.5H45.3895V35.275H44.3895ZM44.8895 35H42.0095V36H44.8895V35ZM42.5095 35.5V35.275H41.5095V35.5H42.5095ZM42.0095 35.775H43.3055V34.775H42.0095V35.775ZM43.8055 35.275V22.225H42.8055V35.275H43.8055ZM43.3055 21.725H41.9285V22.725H43.3055V21.725ZM42.4285 22.225V22H41.4285V22.225H42.4285ZM41.9285 22.5H43.5305V21.5H41.9285V22.5ZM55.8735 22V22.225H56.8735V22H55.8735ZM56.3735 21.725H55.1135V22.725H56.3735V21.725ZM54.6135 22.225V35.275H55.6135V22.225H54.6135ZM55.1135 35.775H56.3735V34.775H55.1135V35.775ZM55.8735 35.275V35.5H56.8735V35.275H55.8735ZM56.3735 35H51.9545V36H56.3735V35ZM52.4545 35.5V35.275H51.4545V35.5H52.4545ZM51.9545 35.775H53.4035V34.775H51.9545V35.775ZM53.9035 35.275V22H52.9035V35.275H53.9035ZM53.4035 22.5H56.3735V21.5H53.4035V22.5ZM59.4517 35.5H58.9517V36H59.4517V35.5ZM59.4517 35.275V34.775H58.9517V35.275H59.4517ZM61.4227 35.275V35.775H61.9227V35.275H61.4227ZM61.4227 22.225H61.9227V21.725H61.4227V22.225ZM59.4517 22.225H58.9517V22.725H59.4517V22.225ZM59.4517 22V21.5H58.9517V22H59.4517ZM65.3017 22H65.8017V21.5H65.3017V22ZM65.3017 22.225V22.725H65.8017V22.225H65.3017ZM63.1417 22.225V21.725H62.6417V22.225H63.1417ZM63.1417 35.275H62.6417V35.775H63.1417V35.275ZM65.3017 35.275H65.8017V34.775H65.3017V35.275ZM65.3017 35.5V36H65.8017V35.5H65.3017ZM59.9517 35.5V35.275H58.9517V35.5H59.9517ZM59.4517 35.775H61.4227V34.775H59.4517V35.775ZM61.9227 35.275V22.225H60.9227V35.275H61.9227ZM61.4227 21.725H59.4517V22.725H61.4227V21.725ZM59.9517 22.225V22H58.9517V22.225H59.9517ZM59.4517 22.5H65.3017V21.5H59.4517V22.5ZM64.8017 22V22.225H65.8017V22H64.8017ZM65.3017 21.725H63.1417V22.725H65.3017V21.725ZM62.6417 22.225V35.275H63.6417V22.225H62.6417ZM63.1417 35.775H65.3017V34.775H63.1417V35.775ZM64.8017 35.275V35.5H65.8017V35.275H64.8017ZM65.3017 35H59.4517V36H65.3017V35ZM68.3969 35.5H67.8969V36H68.3969V35.5ZM68.3969 35.275V34.775H67.8969V35.275H68.3969ZM70.0079 35.275V35.775H70.5079V35.275H70.0079ZM70.0079 22.225H70.5079V21.725H70.0079V22.225ZM68.3969 22.225H67.8969V22.725H68.3969V22.225ZM68.3969 22V21.5H67.8969V22H68.3969ZM77.9279 22H78.4279V21.5H77.9279V22ZM77.9279 25.69V26.19H78.4279V25.69H77.9279ZM77.7119 25.69H77.2119V26.19H77.7119V25.69ZM77.4149 23.944L76.945 24.1149L76.9474 24.1213L77.4149 23.944ZM76.4789 22.693L76.1834 23.0964L76.1899 23.101L76.4789 22.693ZM71.7269 22.225V21.725H71.2269V22.225H71.7269ZM71.7269 35.275H71.2269V35.775H71.7269V35.275ZM76.5509 34.798L76.8295 35.2132L76.8306 35.2124L76.5509 34.798ZM77.5769 33.457L77.1071 33.2857L77.1062 33.2885L77.5769 33.457ZM77.8919 31.45V30.95H77.3919V31.45H77.8919ZM78.1169 31.45H78.6169V30.95H78.1169V31.45ZM78.1169 35.5V36H78.6169V35.5H78.1169ZM74.6519 30.487H74.1519V30.987H74.6519V30.487ZM74.3999 29.47L73.9686 29.7231L73.9728 29.73L74.3999 29.47ZM73.7339 28.849L73.5025 29.2924L73.5141 29.2981L73.7339 28.849ZM71.1779 28.633H70.6779V29.133H71.1779V28.633ZM71.1779 28.408V27.908H70.6779V28.408H71.1779ZM73.7339 28.219L73.9416 28.6739L73.9459 28.6718L73.7339 28.219ZM74.3999 27.625L73.978 27.3565L73.9737 27.3635L74.3999 27.625ZM74.6519 26.626V26.126H74.1519V26.626H74.6519ZM74.8769 26.626H75.3769V26.126H74.8769V26.626ZM74.8769 30.487V30.987H75.3769V30.487H74.8769ZM68.8969 35.5V35.275H67.8969V35.5H68.8969ZM68.3969 35.775H70.0079V34.775H68.3969V35.775ZM70.5079 35.275V22.225H69.5079V35.275H70.5079ZM70.0079 21.725H68.3969V22.725H70.0079V21.725ZM68.8969 22.225V22H67.8969V22.225H68.8969ZM68.3969 22.5H77.9279V21.5H68.3969V22.5ZM77.4279 22V25.69H78.4279V22H77.4279ZM77.9279 25.19H77.7119V26.19H77.9279V25.19ZM78.2119 25.69C78.2119 24.9964 78.1049 24.3531 77.8824 23.7667L76.9474 24.1213C77.121 24.5789 77.2119 25.0996 77.2119 25.69H78.2119ZM77.8848 23.7731C77.6603 23.1557 77.2881 22.6535 76.7679 22.285L76.1899 23.101C76.5337 23.3445 76.7855 23.6763 76.945 24.1149L77.8848 23.7731ZM76.7743 22.2896C76.2383 21.897 75.5605 21.725 74.7869 21.725V22.725C75.4174 22.725 75.8675 22.865 76.1835 23.0964L76.7743 22.2896ZM74.7869 21.725H71.7269V22.725H74.7869V21.725ZM71.2269 22.225V35.275H72.2269V22.225H71.2269ZM71.7269 35.775H74.6069V34.775H71.7269V35.775ZM74.6069 35.775C75.4865 35.775 76.2442 35.6059 76.8295 35.2132L76.2723 34.3828C75.9096 34.6261 75.3713 34.775 74.6069 34.775V35.775ZM76.8306 35.2124C77.4031 34.826 77.8095 34.2908 78.0477 33.6255L77.1062 33.2885C76.9363 33.7632 76.6588 34.122 76.2712 34.3836L76.8306 35.2124ZM78.0467 33.6283C78.2809 32.9859 78.3919 32.2568 78.3919 31.45H77.3919C77.3919 32.1672 77.293 32.7761 77.1072 33.2857L78.0467 33.6283ZM77.8919 31.95H78.1169V30.95H77.8919V31.95ZM77.6169 31.45V35.5H78.6169V31.45H77.6169ZM78.1169 35H68.3969V36H78.1169V35ZM75.1519 30.487C75.1519 30.0156 75.0531 29.5814 74.827 29.21L73.9728 29.73C74.0827 29.9106 74.1519 30.1544 74.1519 30.487H75.1519ZM74.8311 29.2169C74.6204 28.858 74.3257 28.5819 73.9537 28.3999L73.5141 29.2981C73.7061 29.3921 73.8554 29.53 73.9687 29.7231L74.8311 29.2169ZM73.9652 28.4057C73.6109 28.2209 73.2214 28.133 72.8069 28.133V29.133C73.0765 29.133 73.3049 29.1891 73.5026 29.2923L73.9652 28.4057ZM72.8069 28.133H71.1779V29.133H72.8069V28.133ZM71.6779 28.633V28.408H70.6779V28.633H71.6779ZM71.1779 28.908H72.8069V27.908H71.1779V28.908ZM72.8069 28.908C73.2114 28.908 73.5925 28.8332 73.9416 28.6738L73.5263 27.7642C73.3233 27.8568 73.0864 27.908 72.8069 27.908V28.908ZM73.9459 28.6718C74.316 28.4986 74.6126 28.2343 74.8261 27.8865L73.9737 27.3635C73.8632 27.5437 73.7159 27.6754 73.5219 27.7662L73.9459 28.6718ZM74.8217 27.8934C75.0535 27.5293 75.1519 27.0963 75.1519 26.626H74.1519C74.1519 26.9597 74.0824 27.1927 73.9781 27.3566L74.8217 27.8934ZM74.6519 27.126H74.8769V26.126H74.6519V27.126ZM74.3769 26.626V30.487H75.3769V26.626H74.3769ZM74.8769 29.987H74.6519V30.987H74.8769V29.987ZM84.6602 28.66H84.1602V29.16H84.6602V28.66ZM84.6602 28.525V28.025H84.1602V28.525H84.6602ZM88.8272 28.156L89.0882 28.5825L89.0928 28.5796L88.8272 28.156ZM89.7452 27.085L90.2004 27.2919L90.2014 27.2897L89.7452 27.085ZM89.7452 23.71L89.2871 23.9104L89.288 23.9125L89.7452 23.71ZM88.8272 22.612L88.5571 23.0328L88.5616 23.0356L88.8272 22.612ZM81.4202 22.225H80.9202V22.725H81.4202V22.225ZM81.4202 22V21.5H80.9202V22H81.4202ZM89.7272 22.369L89.5553 22.8386L89.5603 22.8403L89.7272 22.369ZM91.3022 23.485L90.8999 23.7819L90.9016 23.7842L91.3022 23.485ZM91.3382 27.292L91.7412 27.5879L91.743 27.5855L91.3382 27.292ZM89.8082 28.336L89.9624 28.8116L89.965 28.8108L89.8082 28.336ZM81.4202 35.5H80.9202V36H81.4202V35.5ZM81.4202 35.275V34.775H80.9202V35.275H81.4202ZM87.0902 35.275H87.5902V34.775H87.0902V35.275ZM87.0902 35.5V36H87.5902V35.5H87.0902ZM83.3912 35.383H82.8912V35.883H83.3912V35.383ZM83.3912 22.153V21.653H82.8912V22.153H83.3912ZM85.1102 22.153H85.6102V21.653H85.1102V22.153ZM85.1102 35.383V35.883H85.6102V35.383H85.1102ZM90.5462 35.302L90.2688 35.718L90.2728 35.7206L90.5462 35.302ZM89.9162 34.528L89.4519 34.7137L89.4531 34.7166L89.9162 34.528ZM89.6642 33.43L89.1655 33.4667L89.1662 33.4746L89.6642 33.43ZM89.6102 32.17L90.1101 32.1631L90.1101 32.1631L89.6102 32.17ZM89.5382 30.919L89.0408 30.9702L89.0409 30.971L89.5382 30.919ZM89.2592 29.821L88.8009 30.021L88.8023 30.0241L89.2592 29.821ZM88.5662 29.038L88.3041 29.4638L88.3078 29.466L88.5662 29.038ZM84.6602 28.75H84.1602V29.25H84.6602V28.75ZM84.6602 28.624V28.124H84.1602V28.624H84.6602ZM89.6912 28.993L89.4739 29.4434L89.4803 29.4464L89.6912 28.993ZM90.8522 29.947L91.2711 29.6741L91.2711 29.6741L90.8522 29.947ZM91.3652 31.261L90.8726 31.3472L90.874 31.3543L91.3652 31.261ZM91.5092 32.692L91.0092 32.6982L91.0092 32.6983L91.5092 32.692ZM91.5452 33.997L92.0447 33.9743L91.5452 33.997ZM91.7342 34.951L91.2781 35.1562L91.2825 35.1655L91.7342 34.951ZM92.8862 35.257L92.9986 35.7442L93.0074 35.7422L93.0162 35.7398L92.8862 35.257ZM93.3092 35.104L93.7748 34.9218L93.5791 34.4217L93.0942 34.6526L93.3092 35.104ZM93.3902 35.311L93.6283 35.7506L94.0168 35.5402L93.8558 35.1288L93.3902 35.311ZM92.7512 35.509L92.8452 36.0001L92.8452 36.0001L92.7512 35.509ZM85.1602 28.66V28.525H84.1602V28.66H85.1602ZM84.6602 29.025H87.3602V28.025H84.6602V29.025ZM87.3602 29.025C88.0078 29.025 88.5918 28.8862 89.0882 28.5825L88.5662 27.7295C88.2586 27.9178 87.8646 28.025 87.3602 28.025V29.025ZM89.0928 28.5796C89.5837 28.2719 89.9528 27.8367 90.2004 27.2919L89.29 26.8781C89.1176 27.2573 88.8747 27.5361 88.5616 27.7324L89.0928 28.5796ZM90.2014 27.2897C90.447 26.7422 90.5602 26.1079 90.5602 25.402H89.5602C89.5602 26.0041 89.4633 26.4918 89.289 26.8803L90.2014 27.2897ZM90.5602 25.402C90.5602 24.6959 90.447 24.0596 90.2023 23.5075L89.288 23.9125C89.4634 24.3084 89.5602 24.8001 89.5602 25.402H90.5602ZM90.2033 23.5096C89.9574 22.9475 89.5887 22.4993 89.0928 22.1884L88.5616 23.0356C88.8697 23.2287 89.113 23.5125 89.2871 23.9104L90.2033 23.5096ZM89.0972 22.1912C88.5994 21.8717 88.012 21.725 87.3602 21.725V22.725C87.8603 22.725 88.251 22.8363 88.5571 23.0328L89.0972 22.1912ZM87.3602 21.725H81.4202V22.725H87.3602V21.725ZM81.9202 22.225V22H80.9202V22.225H81.9202ZM81.4202 22.5H87.3602V21.5H81.4202V22.5ZM87.3602 22.5C88.2225 22.5 88.9508 22.6172 89.5553 22.8385L89.8991 21.8995C89.1595 21.6288 88.3099 21.5 87.3602 21.5V22.5ZM89.5603 22.8403C90.1586 23.0521 90.5957 23.3697 90.8999 23.7819L91.7045 23.1881C91.2647 22.5923 90.6518 22.1659 89.894 21.8977L89.5603 22.8403ZM90.9016 23.7842C91.1942 24.1759 91.3602 24.702 91.3602 25.402H92.3602C92.3602 24.542 92.1542 23.7901 91.7028 23.1858L90.9016 23.7842ZM91.3602 25.402C91.3602 26.1096 91.2026 26.6272 90.9334 26.9985L91.743 27.5855C92.1698 26.9968 92.3602 26.2544 92.3602 25.402H91.3602ZM90.9351 26.9961C90.6603 27.3705 90.2452 27.6651 89.6513 27.8612L89.965 28.8108C90.7152 28.5629 91.3201 28.1615 91.7412 27.5879L90.9351 26.9961ZM89.6539 27.8604C89.0527 28.0554 88.2922 28.16 87.3602 28.16V29.16C88.3602 29.16 89.2317 29.0486 89.9624 28.8116L89.6539 27.8604ZM87.3602 28.16H84.6602V29.16H87.3602V28.16ZM81.9202 35.5V35.275H80.9202V35.5H81.9202ZM81.4202 35.775H87.0902V34.775H81.4202V35.775ZM86.5902 35.275V35.5H87.5902V35.275H86.5902ZM87.0902 35H81.4202V36H87.0902V35ZM83.8912 35.383V22.153H82.8912V35.383H83.8912ZM83.3912 22.653H85.1102V21.653H83.3912V22.653ZM84.6102 22.153V35.383H85.6102V22.153H84.6102ZM85.1102 34.883H83.3912V35.883H85.1102V34.883ZM91.7702 35.09C91.3009 35.09 91.0017 35.0023 90.8196 34.8834L90.2728 35.7206C90.6786 35.9857 91.1955 36.09 91.7702 36.09V35.09ZM90.8235 34.886C90.6197 34.7501 90.4739 34.5717 90.3792 34.3394L89.4531 34.7166C89.6225 35.1323 89.8966 35.4699 90.2688 35.718L90.8235 34.886ZM90.3804 34.3423C90.2687 34.0631 90.1944 33.7454 90.1622 33.3854L89.1662 33.4746C89.2059 33.9186 89.2996 34.3329 89.4519 34.7137L90.3804 34.3423ZM90.1628 33.3933C90.1336 32.9958 90.116 32.5857 90.1101 32.1631L89.1102 32.1769C89.1164 32.6183 89.1348 33.0482 89.1655 33.4667L90.1628 33.3933ZM90.1101 32.1631C90.1039 31.717 90.0791 31.285 90.0355 30.867L89.0409 30.971C89.0812 31.357 89.1044 31.759 89.1102 32.1769L90.1101 32.1631ZM90.0356 30.8678C89.989 30.4154 89.8846 29.997 89.7161 29.6179L88.8023 30.0241C88.9218 30.293 89.0034 30.6066 89.0408 30.9702L90.0356 30.8678ZM89.7175 29.621C89.5307 29.193 89.2282 28.8537 88.8246 28.61L88.3078 29.466C88.5401 29.6063 88.6997 29.789 88.8009 30.021L89.7175 29.621ZM88.8282 28.6122C88.4071 28.353 87.8711 28.25 87.2702 28.25V29.25C87.7732 29.25 88.1012 29.339 88.3041 29.4638L88.8282 28.6122ZM87.2702 28.25H84.6602V29.25H87.2702V28.25ZM85.1602 28.75V28.624H84.1602V28.75H85.1602ZM84.6602 29.124H87.6302V28.124H84.6602V29.124ZM87.6302 29.124C88.4549 29.124 89.0579 29.2427 89.474 29.4433L89.9084 28.5427C89.3044 28.2513 88.5335 28.124 87.6302 28.124V29.124ZM89.4803 29.4464C89.9289 29.655 90.2359 29.9171 90.4333 30.2199L91.2711 29.6741C90.9524 29.1849 90.4855 28.811 89.9021 28.5396L89.4803 29.4464ZM90.4333 30.2199C90.6532 30.5575 90.8 30.9317 90.8727 31.3472L91.8577 31.1748C91.7624 30.6303 91.5672 30.1285 91.2711 29.6741L90.4333 30.2199ZM90.874 31.3543C90.9585 31.7997 91.0036 32.2476 91.0092 32.6982L92.0091 32.6858C92.0028 32.1764 91.9518 31.6703 91.8564 31.1677L90.874 31.3543ZM91.0092 32.6983C91.0153 33.1768 91.0274 33.6173 91.0457 34.0197L92.0447 33.9743C92.027 33.5847 92.0151 33.1552 92.0091 32.6857L91.0092 32.6983ZM91.0457 34.0197C91.0653 34.45 91.1347 34.8372 91.2782 35.1562L92.1901 34.7458C92.1177 34.5848 92.0611 34.336 92.0447 33.9743L91.0457 34.0197ZM91.2825 35.1655C91.3789 35.3683 91.5267 35.5395 91.7291 35.6551C91.9272 35.7683 92.1469 35.811 92.3642 35.811V34.811C92.2755 34.811 92.2372 34.7937 92.2253 34.7869C92.2177 34.7825 92.2035 34.7737 92.1858 34.7365L91.2825 35.1655ZM92.3642 35.811C92.5868 35.811 92.7993 35.7902 92.9986 35.7442L92.7738 34.7698C92.6611 34.7958 92.5256 34.811 92.3642 34.811V35.811ZM93.0162 35.7398C93.1969 35.6911 93.367 35.6303 93.5242 35.5554L93.0942 34.6526C92.9994 34.6977 92.8874 34.7389 92.7562 34.7742L93.0162 35.7398ZM92.8436 35.2862L92.9246 35.4932L93.8558 35.1288L93.7748 34.9218L92.8436 35.2862ZM93.152 34.8714C93.0748 34.9132 92.9206 34.9675 92.6572 35.0179L92.8452 36.0001C93.1457 35.9425 93.4175 35.8648 93.6283 35.7506L93.152 34.8714ZM92.6572 35.0179C92.4137 35.0645 92.1193 35.09 91.7702 35.09V36.09C92.165 36.09 92.5247 36.0615 92.8452 36.0001L92.6572 35.0179ZM103.037 35.5H102.537V36H103.037V35.5ZM103.037 35.275V34.775H102.537V35.275H103.037ZM104.648 35.275V35.775H105.148V35.275H104.648ZM104.648 22.225H105.148V21.725H104.648V22.225ZM103.037 22.225H102.537V22.725H103.037V22.225ZM103.037 22V21.5H102.537V22H103.037ZM107.978 22H108.478V21.5H107.978V22ZM107.978 22.225V22.725H108.478V22.225H107.978ZM106.367 22.225V21.725H105.867V22.225H106.367ZM106.367 35.275H105.867V35.775H106.367V35.275ZM110.858 35.005L111.05 35.4665L111.053 35.4652L110.858 35.005ZM111.857 34.222L112.271 34.5028L112.271 34.5028L111.857 34.222ZM112.316 33.016L112.809 33.0982L112.809 33.0972L112.316 33.016ZM112.433 31.45V30.95H111.933V31.45H112.433ZM112.658 31.45H113.158V30.95H112.658V31.45ZM112.658 35.5V36H113.158V35.5H112.658ZM103.537 35.5V35.275H102.537V35.5H103.537ZM103.037 35.775H104.648V34.775H103.037V35.775ZM105.148 35.275V22.225H104.148V35.275H105.148ZM104.648 21.725H103.037V22.725H104.648V21.725ZM103.537 22.225V22H102.537V22.225H103.537ZM103.037 22.5H107.978V21.5H103.037V22.5ZM107.478 22V22.225H108.478V22H107.478ZM107.978 21.725H106.367V22.725H107.978V21.725ZM105.867 22.225V35.275H106.867V22.225H105.867ZM106.367 35.775H109.148V34.775H106.367V35.775ZM109.148 35.775C109.892 35.775 110.534 35.6815 111.05 35.4665L110.666 34.5435C110.318 34.6885 109.821 34.775 109.148 34.775V35.775ZM111.053 35.4652C111.565 35.2482 111.98 34.9312 112.271 34.5028L111.443 33.9412C111.278 34.1848 111.028 34.3898 110.663 34.5448L111.053 35.4652ZM112.271 34.5028C112.546 34.0978 112.721 33.6254 112.809 33.0982L111.823 32.9338C111.755 33.3426 111.625 33.6742 111.443 33.9412L112.271 34.5028ZM112.809 33.0972C112.893 32.5919 112.933 32.0423 112.933 31.45H111.933C111.933 31.9977 111.896 32.4921 111.823 32.9348L112.809 33.0972ZM112.433 31.95H112.658V30.95H112.433V31.95ZM112.158 31.45V35.5H113.158V31.45H112.158ZM112.658 35H103.037V36H112.658V35ZM119.541 35.149L119.314 35.5947L119.319 35.597L119.541 35.149ZM117.732 33.655L117.336 33.9609L117.338 33.9633L117.732 33.655ZM116.607 31.45L116.128 31.5937L116.129 31.5978L116.607 31.45ZM116.634 26.059L117.109 26.213L117.11 26.212L116.634 26.059ZM117.795 23.845L117.405 23.5322L117.403 23.5345L117.795 23.845ZM119.622 22.36L119.845 22.8072L119.848 22.8057L119.622 22.36ZM124.347 22.36L124.119 22.8049L124.123 22.8072L124.347 22.36ZM126.165 23.845L125.773 24.1555L125.775 24.1578L126.165 23.845ZM127.335 26.059L126.859 26.212L126.859 26.213L127.335 26.059ZM127.353 31.45L126.875 31.3032L126.874 31.3054L127.353 31.45ZM126.228 33.655L125.834 33.3467L125.832 33.3491L126.228 33.655ZM124.419 35.149L124.642 35.5962L124.644 35.5955L124.419 35.149ZM123.888 34.897L124.198 35.2893L124.201 35.287L123.888 34.897ZM125.535 31.171L125.038 31.1113L125.038 31.1113L125.535 31.171ZM125.508 26.329L125.012 26.3961L125.013 26.3997L125.508 26.329ZM124.932 24.16L124.47 24.3523L124.472 24.3559L124.932 24.16ZM123.807 22.612L123.489 22.9981L123.494 23.0024L123.807 22.612ZM120.162 22.612L120.474 23.0024L120.477 23.0001L120.162 22.612ZM119.028 24.16L118.568 23.9641L118.566 23.9677L119.028 24.16ZM118.452 26.329L117.957 26.2583L117.956 26.2619L118.452 26.329ZM118.434 31.171L118.93 31.1113L118.93 31.1113L118.434 31.171ZM118.965 33.34L118.5 33.525L118.5 33.525L118.965 33.34ZM120.081 34.897L119.768 35.287L119.771 35.2893L120.081 34.897ZM121.989 35.18C121.136 35.18 120.398 35.016 119.763 34.701L119.319 35.597C120.111 35.99 121.005 36.18 121.989 36.18V35.18ZM119.767 34.7033C119.125 34.377 118.579 33.9263 118.125 33.3467L117.338 33.9633C117.88 34.6557 118.54 35.201 119.314 35.5947L119.767 34.7033ZM118.127 33.3491C117.675 32.7643 117.326 32.0839 117.084 31.3022L116.129 31.5978C116.403 32.4841 116.805 33.2737 117.336 33.9609L118.127 33.3491ZM117.086 31.3063C116.849 30.5171 116.729 29.6659 116.729 28.75H115.729C115.729 29.7541 115.861 30.7029 116.128 31.5937L117.086 31.3063ZM116.729 28.75C116.729 27.8373 116.857 26.9928 117.109 26.213L116.158 25.905C115.87 26.7932 115.729 27.7427 115.729 28.75H116.729ZM117.11 26.212C117.363 25.4241 117.723 24.7406 118.187 24.1555L117.403 23.5345C116.858 24.2214 116.444 25.0139 116.158 25.906L117.11 26.212ZM118.185 24.1578C118.651 23.5764 119.204 23.128 119.845 22.8072L119.398 21.9128C118.624 22.3 117.958 22.8416 117.405 23.5322L118.185 24.1578ZM119.848 22.8057C120.48 22.4847 121.19 22.32 121.989 22.32V21.32C121.048 21.32 120.18 21.5153 119.395 21.9143L119.848 22.8057ZM121.989 22.32C122.788 22.32 123.494 22.4847 124.119 22.8049L124.575 21.9151C123.795 21.5153 122.93 21.32 121.989 21.32V22.32ZM124.123 22.8072C124.764 23.1277 125.313 23.5754 125.773 24.1555L126.557 23.5345C126.008 22.8426 125.345 22.3003 124.57 21.9128L124.123 22.8072ZM125.775 24.1578C126.243 24.7424 126.606 25.4253 126.859 26.212L127.811 25.906C127.524 25.0127 127.106 24.2196 126.555 23.5322L125.775 24.1578ZM126.859 26.213C127.111 26.9928 127.24 27.8373 127.24 28.75H128.24C128.24 27.7427 128.098 26.7932 127.81 25.905L126.859 26.213ZM127.24 28.75C127.24 29.6648 127.117 30.5149 126.875 31.3032L127.831 31.5968C128.105 30.7051 128.24 29.7552 128.24 28.75H127.24ZM126.874 31.3054C126.639 32.0847 126.291 32.7633 125.834 33.3467L126.621 33.9633C127.16 33.2747 127.563 32.4833 127.831 31.5946L126.874 31.3054ZM125.832 33.3491C125.386 33.9265 124.841 34.3763 124.194 34.7025L124.644 35.5955C125.425 35.2017 126.086 34.6555 126.623 33.9609L125.832 33.3491ZM124.195 34.7018C123.566 35.0161 122.835 35.18 121.989 35.18V36.18C122.966 36.18 123.855 35.9899 124.642 35.5962L124.195 34.7018ZM121.989 35.973C122.851 35.973 123.603 35.7595 124.198 35.2893L123.578 34.5047C123.201 34.8025 122.686 34.973 121.989 34.973V35.973ZM124.201 35.287C124.762 34.8367 125.182 34.2435 125.468 33.525L124.539 33.155C124.309 33.7325 123.986 34.1773 123.575 34.507L124.201 35.287ZM125.468 33.525C125.744 32.8312 125.931 32.0653 126.031 31.2307L125.038 31.1113C124.947 31.8727 124.779 32.5528 124.539 33.155L125.468 33.525ZM126.031 31.2307C126.13 30.4126 126.179 29.5857 126.179 28.75H125.179C125.179 29.5463 125.132 30.3334 125.038 31.1113L126.031 31.2307ZM126.179 28.75C126.179 27.9106 126.12 27.08 126.003 26.2583L125.013 26.3997C125.123 27.174 125.179 27.9574 125.179 28.75H126.179ZM126.003 26.2619C125.89 25.4258 125.688 24.6586 125.392 23.9641L124.472 24.3559C124.728 24.9574 124.909 25.6362 125.012 26.3961L126.003 26.2619ZM125.393 23.9677C125.096 23.2533 124.673 22.6651 124.119 22.2216L123.494 23.0024C123.9 23.3269 124.228 23.7707 124.47 24.3523L125.393 23.9677ZM124.124 22.2259C123.544 21.7481 122.818 21.527 121.989 21.527V22.527C122.635 22.527 123.122 22.6959 123.489 22.9981L124.124 22.2259ZM121.989 21.527C121.159 21.527 120.432 21.7482 119.846 22.2239L120.477 23.0001C120.851 22.6958 121.342 22.527 121.989 22.527V21.527ZM119.849 22.2216C119.296 22.6643 118.871 23.2512 118.568 23.9641L119.488 24.3559C119.736 23.7728 120.067 23.3277 120.474 23.0024L119.849 22.2216ZM118.566 23.9677C118.278 24.6599 118.076 25.4245 117.957 26.2583L118.947 26.3997C119.056 25.6375 119.238 24.9561 119.489 24.3523L118.566 23.9677ZM117.956 26.2619C117.845 27.0825 117.79 27.9119 117.79 28.75H118.79C118.79 27.9561 118.842 27.1715 118.947 26.3961L117.956 26.2619ZM117.79 28.75C117.79 29.5857 117.839 30.4126 117.937 31.2307L118.93 31.1113C118.837 30.3334 118.79 29.5463 118.79 28.75H117.79ZM117.937 31.2307C118.038 32.0653 118.224 32.8312 118.5 33.525L119.429 33.155C119.189 32.5528 119.022 31.8727 118.93 31.1113L117.937 31.2307ZM118.5 33.525C118.786 34.2435 119.207 34.8367 119.768 35.287L120.394 34.507C119.983 34.1773 119.659 33.7325 119.429 33.155L118.5 33.525ZM119.771 35.2893C120.366 35.76 121.121 35.973 121.989 35.973V34.973C121.284 34.973 120.767 34.802 120.391 34.5047L119.771 35.2893ZM139.75 22.891L139.488 23.3169L139.492 23.3188L139.75 22.891ZM141.991 25.303L141.546 25.5308L141.547 25.5329L141.991 25.303ZM142.306 31.423L141.84 31.2426L141.839 31.2444L142.306 31.423ZM140.974 33.565L140.61 33.2223L140.608 33.2242L140.974 33.565ZM138.922 34.996L139.118 35.4563L139.119 35.4556L138.922 34.996ZM131.263 35.5H130.763V36H131.263V35.5ZM131.263 35.275V34.775H130.763V35.275H131.263ZM132.874 35.275V35.775H133.374V35.275H132.874ZM132.874 22.225H133.374V21.725H132.874V22.225ZM131.263 22.225H130.763V22.725H131.263V22.225ZM131.263 22V21.5H130.763V22H131.263ZM134.593 35.275H134.093V35.775H134.593V35.275ZM138.382 34.726L138.654 35.1454L138.654 35.1454L138.382 34.726ZM139.741 33.25L140.179 33.4921L140.18 33.4903L139.741 33.25ZM140.479 31.144L140.97 31.2384L140.97 31.2384L140.479 31.144ZM139.669 24.259L139.233 24.5025L139.235 24.5075L139.669 24.259ZM134.593 22.225V21.725H134.093V22.225H134.593ZM136.294 22.5C137.557 22.5 138.614 22.7795 139.488 23.3169L140.012 22.4651C138.954 21.8145 137.708 21.5 136.294 21.5V22.5ZM139.492 23.3188C140.383 23.8583 141.066 24.5927 141.546 25.5308L142.436 25.0752C141.872 23.9733 141.061 23.0997 140.009 22.4632L139.492 23.3188ZM141.547 25.5329C142.035 26.4741 142.283 27.5428 142.283 28.75H143.283C143.283 27.4012 143.004 26.1719 142.435 25.0731L141.547 25.5329ZM142.283 28.75C142.283 29.6538 142.134 30.4831 141.84 31.2426L142.773 31.6034C143.115 30.7189 143.283 29.7662 143.283 28.75H142.283ZM141.839 31.2444C141.55 32.002 141.14 32.6597 140.61 33.2223L141.338 33.9077C141.961 33.2463 142.439 32.476 142.773 31.6016L141.839 31.2444ZM140.608 33.2242C140.088 33.7834 139.462 34.2208 138.725 34.5364L139.119 35.4556C139.979 35.0872 140.721 34.5706 141.34 33.9058L140.608 33.2242ZM138.727 34.5357C138.004 34.8426 137.195 35 136.294 35V36C137.314 36 138.257 35.8214 139.118 35.4563L138.727 34.5357ZM136.294 35H131.263V36H136.294V35ZM131.763 35.5V35.275H130.763V35.5H131.763ZM131.263 35.775H132.874V34.775H131.263V35.775ZM133.374 35.275V22.225H132.374V35.275H133.374ZM132.874 21.725H131.263V22.725H132.874V21.725ZM131.763 22.225V22H130.763V22.225H131.763ZM131.263 22.5H136.294V21.5H131.263V22.5ZM134.593 35.775H136.294V34.775H134.593V35.775ZM136.294 35.775C137.196 35.775 137.992 35.575 138.654 35.1454L138.11 34.3066C137.644 34.609 137.048 34.775 136.294 34.775V35.775ZM138.654 35.1454C139.291 34.7325 139.799 34.1781 140.179 33.4921L139.304 33.0079C138.999 33.5579 138.602 33.9875 138.11 34.3066L138.654 35.1454ZM140.18 33.4903C140.549 32.8157 140.812 32.0636 140.97 31.2384L139.988 31.0496C139.847 31.7844 139.617 32.4363 139.303 33.0097L140.18 33.4903ZM140.97 31.2384C141.126 30.4265 141.204 29.5968 141.204 28.75H140.204C140.204 29.5352 140.132 30.3015 139.988 31.0496L140.97 31.2384ZM141.204 28.75C141.204 27.8994 141.117 27.0661 140.941 26.2507L139.964 26.4613C140.124 27.2059 140.204 27.9686 140.204 28.75H141.204ZM140.941 26.2507C140.764 25.4264 140.486 24.6781 140.103 24.0105L139.235 24.5075C139.561 25.0759 139.805 25.7256 139.964 26.4613L140.941 26.2507ZM140.106 24.0155C139.722 23.3261 139.215 22.7692 138.585 22.3559L138.036 23.1921C138.522 23.5108 138.921 23.9439 139.233 24.5025L140.106 24.0155ZM138.585 22.3559C137.931 21.9275 137.16 21.725 136.294 21.725V22.725C137.001 22.725 137.573 22.8885 138.036 23.1921L138.585 22.3559ZM136.294 21.725H134.593V22.725H136.294V21.725ZM134.093 22.225V35.275H135.093V22.225H134.093ZM153.733 30.244V29.744H153.233V30.244H153.733ZM158.602 30.244H159.102V29.744H158.602V30.244ZM158.602 30.496V30.996H159.102V30.496H158.602ZM157.513 30.496V29.996H157.013V30.496H157.513ZM157.513 32.53L157.963 32.7498L158.013 32.6458V32.53H157.513ZM156.919 33.493L157.326 33.7843L157.326 33.7843L156.919 33.493ZM155.929 34.537L156.25 34.9211L156.25 34.9206L155.929 34.537ZM154.498 35.356L154.318 34.8897L154.316 34.8904L154.498 35.356ZM149.386 34.789L149.103 35.2006L149.106 35.2028L149.386 34.789ZM147.397 32.323L146.938 32.5209L146.939 32.5231L147.397 32.323ZM147.154 25.987L146.682 25.8229L146.682 25.8248L147.154 25.987ZM148.405 23.782L148.027 23.4548L148.027 23.4548L148.405 23.782ZM150.34 22.333L150.548 22.7879L150.548 22.7879L150.34 22.333ZM154.543 22.135L154.362 22.601L154.362 22.601L154.543 22.135ZM155.947 23.008L155.605 23.3724L155.958 23.7042L156.301 23.3616L155.947 23.008ZM156.955 22V21.5H156.748L156.602 21.6464L156.955 22ZM157.162 22H157.662V21.5H157.162V22ZM157.162 25.69V26.19H157.662V25.69H157.162ZM156.928 25.69L156.429 25.701L156.439 26.19H156.928V25.69ZM156.577 24.214L156.129 24.4352L156.132 24.44L156.577 24.214ZM155.704 23.089L155.377 23.4665L155.38 23.4695L155.704 23.089ZM151.033 22.675L151.32 23.0846L151.32 23.0846L151.033 22.675ZM149.728 24.205L150.172 24.4353L150.173 24.4336L149.728 24.205ZM149.008 26.347L149.5 26.4407L149.5 26.44L149.008 26.347ZM148.945 31.171L148.45 31.2381L148.451 31.2417L148.945 31.171ZM149.53 33.331L149.071 33.5285L149.073 33.5321L149.53 33.331ZM150.691 34.879L150.381 35.2708L150.384 35.2732L150.691 34.879ZM153.967 35.176L154.191 35.6233L154.197 35.6203L153.967 35.176ZM154.867 34.501L154.493 34.1699L154.493 34.1699L154.867 34.501ZM155.38 33.754L154.933 33.5303L154.929 33.5395L155.38 33.754ZM155.632 33.25L156.08 33.4736L156.132 33.368V33.25H155.632ZM155.632 30.496H156.132V29.996H155.632V30.496ZM153.733 30.496H153.233V30.996H153.733V30.496ZM153.733 30.744H158.602V29.744H153.733V30.744ZM158.102 30.244V30.496H159.102V30.244H158.102ZM158.602 29.996H157.513V30.996H158.602V29.996ZM157.013 30.496V32.53H158.013V30.496H157.013ZM157.064 32.3102C156.942 32.5594 156.761 32.8559 156.513 33.2017L157.326 33.7843C157.594 33.4101 157.809 33.0646 157.963 32.7498L157.064 32.3102ZM156.513 33.2017C156.284 33.5219 155.984 33.8396 155.609 34.1534L156.25 34.9206C156.679 34.5624 157.039 34.1841 157.326 33.7843L156.513 33.2017ZM155.609 34.1529C155.261 34.443 154.833 34.6902 154.318 34.8897L154.679 35.8223C155.28 35.5898 155.806 35.291 156.25 34.9211L155.609 34.1529ZM154.316 34.8904C153.834 35.079 153.256 35.18 152.572 35.18V36.18C153.353 36.18 154.059 36.065 154.681 35.8216L154.316 34.8904ZM152.572 35.18C151.406 35.18 150.446 34.9035 149.667 34.3752L149.106 35.2028C150.079 35.8625 151.243 36.18 152.572 36.18V35.18ZM149.67 34.3774C148.883 33.8344 148.277 33.0884 147.856 32.1229L146.939 32.5231C147.43 33.6456 148.15 34.5436 149.103 35.2006L149.67 34.3774ZM147.857 32.1251C147.438 31.1536 147.222 30.0318 147.222 28.75H146.222C146.222 30.1442 146.457 31.4044 146.938 32.5209L147.857 32.1251ZM147.222 28.75C147.222 27.7962 147.359 26.9307 147.627 26.1492L146.682 25.8248C146.373 26.7233 146.222 27.6998 146.222 28.75H147.222ZM147.627 26.1511C147.902 25.3598 148.288 24.6813 148.784 24.1092L148.027 23.4548C147.443 24.1307 146.995 24.9222 146.682 25.8229L147.627 26.1511ZM148.784 24.1092C149.277 23.5395 149.863 23.1001 150.548 22.7879L150.133 21.8781C149.318 22.2499 148.614 22.7765 148.027 23.4548L148.784 24.1092ZM150.548 22.7879C151.226 22.4787 151.985 22.32 152.833 22.32V21.32C151.858 21.32 150.955 21.5033 150.133 21.8781L150.548 22.7879ZM152.833 22.32C153.374 22.32 153.882 22.4143 154.362 22.601L154.725 21.669C154.125 21.4357 153.493 21.32 152.833 21.32V22.32ZM154.362 22.601C154.847 22.7893 155.259 23.0471 155.605 23.3724L156.29 22.6436C155.844 22.2249 155.32 21.9007 154.725 21.669L154.362 22.601ZM156.301 23.3616L157.309 22.3536L156.602 21.6464L155.594 22.6544L156.301 23.3616ZM156.955 22.5H157.162V21.5H156.955V22.5ZM156.662 22V25.69H157.662V22H156.662ZM157.162 25.19H156.928V26.19H157.162V25.19ZM157.428 25.679C157.415 25.0667 157.283 24.4999 157.023 23.988L156.132 24.44C156.316 24.8041 156.418 25.2213 156.429 25.701L157.428 25.679ZM157.026 23.9929C156.78 23.4948 156.447 23.0653 156.029 22.7085L155.38 23.4695C155.694 23.7367 155.943 24.0572 156.129 24.4351L157.026 23.9929ZM156.032 22.7116C155.62 22.3528 155.152 22.0787 154.633 21.8901L154.292 22.8299C154.697 22.9773 155.057 23.1892 155.377 23.4664L156.032 22.7116ZM154.633 21.8901C154.115 21.7017 153.574 21.608 153.013 21.608V22.608C153.461 22.608 153.886 22.6823 154.292 22.8299L154.633 21.8901ZM153.013 21.608C152.15 21.608 151.385 21.8184 150.747 22.2654L151.32 23.0846C151.762 22.7756 152.317 22.608 153.013 22.608V21.608ZM150.747 22.2654C150.134 22.6943 149.647 23.2692 149.284 23.9764L150.173 24.4336C150.47 23.8568 150.853 23.4117 151.32 23.0846L150.747 22.2654ZM149.285 23.9747C148.93 24.6589 148.675 25.42 148.517 26.254L149.5 26.44C149.642 25.69 149.867 25.0231 150.172 24.4353L149.285 23.9747ZM148.517 26.2533C148.361 27.0708 148.283 27.9032 148.283 28.75H149.283C149.283 27.9648 149.356 27.1952 149.5 26.4407L148.517 26.2533ZM148.283 28.75C148.283 29.5881 148.339 30.4175 148.45 31.2381L149.441 31.1039C149.336 30.3285 149.283 29.5439 149.283 28.75H148.283ZM148.451 31.2417C148.57 32.0768 148.775 32.8403 149.071 33.5285L149.99 33.1335C149.734 32.5377 149.549 31.8612 149.44 31.1003L148.451 31.2417ZM149.073 33.5321C149.384 34.2399 149.818 34.8245 150.381 35.2708L151.002 34.4872C150.581 34.1535 150.241 33.7061 149.988 33.1299L149.073 33.5321ZM150.384 35.2732C150.982 35.7398 151.724 35.955 152.572 35.955V34.955C151.897 34.955 151.385 34.7862 150.999 34.4848L150.384 35.2732ZM152.572 35.955C153.183 35.955 153.73 35.8537 154.191 35.6232L153.744 34.7288C153.461 34.8703 153.078 34.955 152.572 34.955V35.955ZM154.197 35.6203C154.612 35.4059 154.965 35.1453 155.242 34.8321L154.493 34.1699C154.314 34.3727 154.067 34.5621 153.738 34.7317L154.197 35.6203ZM155.242 34.8321C155.493 34.5488 155.693 34.2611 155.832 33.9685L154.929 33.5395C154.84 33.7269 154.698 33.9372 154.493 34.1699L155.242 34.8321ZM155.828 33.9776C155.948 33.7376 156.032 33.5696 156.08 33.4736L155.185 33.0264C155.137 33.1224 155.053 33.2904 154.933 33.5304L155.828 33.9776ZM156.132 33.25V30.496H155.132V33.25H156.132ZM155.632 29.996H153.733V30.996H155.632V29.996ZM154.233 30.496V30.244H153.233V30.496H154.233ZM161.546 35.5H161.046V36H161.546V35.5ZM161.546 35.275V34.775H161.046V35.275H161.546ZM163.517 35.275V35.775H164.017V35.275H163.517ZM163.517 22.225H164.017V21.725H163.517V22.225ZM161.546 22.225H161.046V22.725H161.546V22.225ZM161.546 22V21.5H161.046V22H161.546ZM167.396 22H167.896V21.5H167.396V22ZM167.396 22.225V22.725H167.896V22.225H167.396ZM165.236 22.225V21.725H164.736V22.225H165.236ZM165.236 35.275H164.736V35.775H165.236V35.275ZM167.396 35.275H167.896V34.775H167.396V35.275ZM167.396 35.5V36H167.896V35.5H167.396ZM162.046 35.5V35.275H161.046V35.5H162.046ZM161.546 35.775H163.517V34.775H161.546V35.775ZM164.017 35.275V22.225H163.017V35.275H164.017ZM163.517 21.725H161.546V22.725H163.517V21.725ZM162.046 22.225V22H161.046V22.225H162.046ZM161.546 22.5H167.396V21.5H161.546V22.5ZM166.896 22V22.225H167.896V22H166.896ZM167.396 21.725H165.236V22.725H167.396V21.725ZM164.736 22.225V35.275H165.736V22.225H164.736ZM165.236 35.775H167.396V34.775H165.236V35.775ZM166.896 35.275V35.5H167.896V35.275H166.896ZM167.396 35H161.546V36H167.396V35ZM172.543 22H173.043V21.5H172.543V22ZM172.543 35.275H172.043V35.775H172.543V35.275ZM174.685 35.275H175.185V34.775H174.685V35.275ZM174.685 35.5V36H175.185V35.5H174.685ZM170.491 35.5H169.991V36H170.491V35.5ZM170.491 35.275V34.775H169.991V35.275H170.491ZM172.309 35.275V35.775H172.809V35.275H172.309ZM172.309 22.225H172.809V21.725H172.309V22.225ZM170.491 22.225H169.991V22.725H170.491V22.225ZM170.491 22V21.5H169.991V22H170.491ZM183.172 22H183.672V21.5H183.172V22ZM183.172 22.225V22.725H183.672V22.225H183.172ZM181.282 22.225V21.725H180.782V22.225H181.282ZM181.282 35.68V36.18H181.782V35.68H181.282ZM180.976 35.68L180.553 35.946L180.7 36.18H180.976V35.68ZM172.381 22V21.5H171.477L171.958 22.266L172.381 22ZM174.442 22L174.868 21.7377L174.722 21.5H174.442V22ZM181.057 32.737L180.632 32.9993L181.557 34.5018V32.737H181.057ZM181.057 22.225H181.557V21.725H181.057V22.225ZM178.942 22.225H178.442V22.725H178.942V22.225ZM178.942 22V21.5H178.442V22H178.942ZM172.043 22V35.275H173.043V22H172.043ZM172.543 35.775H174.685V34.775H172.543V35.775ZM174.185 35.275V35.5H175.185V35.275H174.185ZM174.685 35H170.491V36H174.685V35ZM170.991 35.5V35.275H169.991V35.5H170.991ZM170.491 35.775H172.309V34.775H170.491V35.775ZM172.809 35.275V22.225H171.809V35.275H172.809ZM172.309 21.725H170.491V22.725H172.309V21.725ZM170.991 22.225V22H169.991V22.225H170.991ZM170.491 22.5H172.543V21.5H170.491V22.5ZM182.672 22V22.225H183.672V22H182.672ZM183.172 21.725H181.282V22.725H183.172V21.725ZM180.782 22.225V35.68H181.782V22.225H180.782ZM181.282 35.18H180.976V36.18H181.282V35.18ZM181.4 35.414L172.805 21.734L171.958 22.266L180.553 35.946L181.4 35.414ZM172.381 22.5H174.442V21.5H172.381V22.5ZM174.017 22.2623L180.632 32.9993L181.483 32.4747L174.868 21.7377L174.017 22.2623ZM181.557 32.737V22.225H180.557V32.737H181.557ZM181.057 21.725H178.942V22.725H181.057V21.725ZM179.442 22.225V22H178.442V22.225H179.442ZM178.942 22.5H183.172V21.5H178.942V22.5ZM193.7 30.244V29.744H193.2V30.244H193.7ZM198.569 30.244H199.069V29.744H198.569V30.244ZM198.569 30.496V30.996H199.069V30.496H198.569ZM197.48 30.496V29.996H196.98V30.496H197.48ZM197.48 32.53L197.929 32.7498L197.98 32.6458V32.53H197.48ZM196.886 33.493L197.292 33.7843L197.292 33.7843L196.886 33.493ZM195.896 34.537L196.216 34.9211L196.216 34.9206L195.896 34.537ZM194.465 35.356L194.284 34.8897L194.283 34.8904L194.465 35.356ZM189.353 34.789L189.069 35.2006L189.072 35.2028L189.353 34.789ZM187.364 32.323L186.905 32.5209L186.906 32.5231L187.364 32.323ZM187.121 25.987L186.649 25.8229L186.648 25.8248L187.121 25.987ZM188.372 23.782L187.994 23.4548L187.994 23.4548L188.372 23.782ZM190.307 22.333L190.514 22.7879L190.514 22.7879L190.307 22.333ZM194.51 22.135L194.329 22.601L194.329 22.601L194.51 22.135ZM195.914 23.008L195.571 23.3724L195.925 23.7042L196.267 23.3616L195.914 23.008ZM196.922 22V21.5H196.715L196.568 21.6464L196.922 22ZM197.129 22H197.629V21.5H197.129V22ZM197.129 25.69V26.19H197.629V25.69H197.129ZM196.895 25.69L196.395 25.701L196.406 26.19H196.895V25.69ZM196.544 24.214L196.095 24.4352L196.098 24.44L196.544 24.214ZM195.671 23.089L195.343 23.4665L195.346 23.4695L195.671 23.089ZM191 22.675L191.287 23.0846L191.287 23.0846L191 22.675ZM189.695 24.205L190.139 24.4353L190.14 24.4336L189.695 24.205ZM188.975 26.347L189.466 26.4407L189.466 26.44L188.975 26.347ZM188.912 31.171L188.416 31.2381L188.417 31.2417L188.912 31.171ZM189.497 33.331L189.037 33.5285L189.039 33.5321L189.497 33.331ZM190.658 34.879L190.347 35.2708L190.35 35.2732L190.658 34.879ZM193.934 35.176L194.157 35.6233L194.163 35.6203L193.934 35.176ZM194.834 34.501L194.459 34.1699L194.459 34.1699L194.834 34.501ZM195.347 33.754L194.9 33.5303L194.895 33.5395L195.347 33.754ZM195.599 33.25L196.046 33.4736L196.099 33.368V33.25H195.599ZM195.599 30.496H196.099V29.996H195.599V30.496ZM193.7 30.496H193.2V30.996H193.7V30.496ZM193.7 30.744H198.569V29.744H193.7V30.744ZM198.069 30.244V30.496H199.069V30.244H198.069ZM198.569 29.996H197.48V30.996H198.569V29.996ZM196.98 30.496V32.53H197.98V30.496H196.98ZM197.031 32.3102C196.909 32.5594 196.727 32.8559 196.479 33.2017L197.292 33.7843C197.56 33.4101 197.775 33.0646 197.929 32.7498L197.031 32.3102ZM196.479 33.2017C196.25 33.5219 195.951 33.8396 195.575 34.1534L196.216 34.9206C196.645 34.5624 197.006 34.1841 197.292 33.7843L196.479 33.2017ZM195.576 34.1529C195.228 34.443 194.8 34.6902 194.284 34.8897L194.645 35.8223C195.246 35.5898 195.772 35.291 196.216 34.9211L195.576 34.1529ZM194.283 34.8904C193.801 35.079 193.223 35.18 192.539 35.18V36.18C193.319 36.18 194.025 36.065 194.647 35.8216L194.283 34.8904ZM192.539 35.18C191.373 35.18 190.413 34.9035 189.633 34.3752L189.072 35.2028C190.045 35.8625 191.209 36.18 192.539 36.18V35.18ZM189.637 34.3774C188.849 33.8344 188.244 33.0884 187.822 32.1229L186.906 32.5231C187.396 33.6456 188.116 34.5436 189.069 35.2006L189.637 34.3774ZM187.823 32.1251C187.404 31.1536 187.189 30.0318 187.189 28.75H186.189C186.189 30.1442 186.423 31.4044 186.905 32.5209L187.823 32.1251ZM187.189 28.75C187.189 27.7962 187.326 26.9307 187.594 26.1492L186.648 25.8248C186.34 26.7233 186.189 27.6998 186.189 28.75H187.189ZM187.593 26.1511C187.868 25.3598 188.255 24.6813 188.75 24.1092L187.994 23.4548C187.409 24.1307 186.962 24.9222 186.649 25.8229L187.593 26.1511ZM188.75 24.1092C189.243 23.5395 189.83 23.1001 190.514 22.7879L190.099 21.8781C189.284 22.2499 188.581 22.7765 187.994 23.4548L188.75 24.1092ZM190.514 22.7879C191.193 22.4787 191.952 22.32 192.8 22.32V21.32C191.824 21.32 190.921 21.5033 190.099 21.8781L190.514 22.7879ZM192.8 22.32C193.34 22.32 193.848 22.4143 194.329 22.601L194.691 21.669C194.091 21.4357 193.46 21.32 192.8 21.32V22.32ZM194.329 22.601C194.813 22.7893 195.225 23.0471 195.571 23.3724L196.256 22.6436C195.81 22.2249 195.287 21.9007 194.691 21.669L194.329 22.601ZM196.267 23.3616L197.275 22.3536L196.568 21.6464L195.56 22.6544L196.267 23.3616ZM196.922 22.5H197.129V21.5H196.922V22.5ZM196.629 22V25.69H197.629V22H196.629ZM197.129 25.19H196.895V26.19H197.129V25.19ZM197.395 25.679C197.381 25.0667 197.249 24.4999 196.99 23.988L196.098 24.44C196.282 24.8041 196.384 25.2213 196.395 25.701L197.395 25.679ZM196.992 23.9929C196.747 23.4948 196.414 23.0653 195.995 22.7085L195.346 23.4695C195.66 23.7367 195.909 24.0572 196.095 24.4351L196.992 23.9929ZM195.999 22.7116C195.586 22.3528 195.118 22.0787 194.6 21.8901L194.258 22.8299C194.663 22.9773 195.024 23.1892 195.343 23.4664L195.999 22.7116ZM194.6 21.8901C194.082 21.7017 193.541 21.608 192.98 21.608V22.608C193.427 22.608 193.852 22.6823 194.258 22.8299L194.6 21.8901ZM192.98 21.608C192.117 21.608 191.352 21.8184 190.713 22.2654L191.287 23.0846C191.728 22.7756 192.283 22.608 192.98 22.608V21.608ZM190.713 22.2654C190.1 22.6943 189.614 23.2692 189.25 23.9764L190.14 24.4336C190.436 23.8568 190.819 23.4117 191.287 23.0846L190.713 22.2654ZM189.251 23.9747C188.896 24.6589 188.642 25.42 188.484 26.254L189.466 26.44C189.608 25.69 189.834 25.0231 190.139 24.4353L189.251 23.9747ZM188.484 26.2533C188.328 27.0708 188.25 27.9032 188.25 28.75H189.25C189.25 27.9648 189.322 27.1952 189.466 26.4407L188.484 26.2533ZM188.25 28.75C188.25 29.5881 188.305 30.4175 188.416 31.2381L189.407 31.1039C189.302 30.3285 189.25 29.5439 189.25 28.75H188.25ZM188.417 31.2417C188.536 32.0768 188.742 32.8403 189.037 33.5285L189.956 33.1335C189.7 32.5377 189.516 31.8612 189.407 31.1003L188.417 31.2417ZM189.039 33.5321C189.35 34.2399 189.784 34.8245 190.347 35.2708L190.968 34.4872C190.547 34.1535 190.208 33.7061 189.955 33.1299L189.039 33.5321ZM190.35 35.2732C190.948 35.7398 191.691 35.955 192.539 35.955V34.955C191.863 34.955 191.352 34.7862 190.965 34.4848L190.35 35.2732ZM192.539 35.955C193.149 35.955 193.696 35.8537 194.157 35.6232L193.71 34.7288C193.427 34.8703 193.045 34.955 192.539 34.955V35.955ZM194.163 35.6203C194.579 35.4059 194.932 35.1453 195.208 34.8321L194.459 34.1699C194.28 34.3727 194.033 34.5621 193.705 34.7317L194.163 35.6203ZM195.208 34.8321C195.459 34.5488 195.659 34.2611 195.798 33.9685L194.895 33.5395C194.806 33.7269 194.665 33.9372 194.459 34.1699L195.208 34.8321ZM195.794 33.9776C195.914 33.7376 195.998 33.5696 196.046 33.4736L195.152 33.0264C195.104 33.1224 195.02 33.2904 194.9 33.5304L195.794 33.9776ZM196.099 33.25V30.496H195.099V33.25H196.099ZM195.599 29.996H193.7V30.996H195.599V29.996ZM194.2 30.496V30.244H193.2V30.496H194.2Z" fill="#CBB26B" mask="url(#path-1-outside-1_0_1)"/>
<path fill-rule="evenodd" clip-rule="evenodd" d="M101.633 2.14474V3.78947H97.8695H94.1055L92.5054 2.28658C90.8368 0.719605 90.425 0.490395 89.7537 0.754868C89.1734 0.98329 78.1487 11.5392 78.0357 11.9746C77.8068 12.855 78.7214 13.6949 79.5788 13.3916C79.7993 13.3136 82.262 11.0809 85.1053 8.38105L90.234 3.51132L95.198 8.39974C97.9281 11.0883 100.31 13.3417 100.492 13.4072C100.975 13.5821 115.601 13.5613 116.134 13.3849C116.368 13.3071 116.658 13.102 116.777 12.9289C117.282 12.1961 117.218 12.1012 113.43 7.99211C111.47 5.86566 109.711 4.05118 109.521 3.95961C109.289 3.84829 108.5 3.79276 107.134 3.79145L105.093 3.78947V2.14474V0.5H103.363H101.633V2.14474ZM86.8265 10.6316V11.9474H88.1411H89.4557V10.6316V9.31579H88.1411H86.8265V10.6316ZM90.8395 10.6316V11.9474H92.2234H93.6072V10.6316V9.31579H92.2234H90.8395V10.6316ZM86.8265 14.25V15.5H88.1411H89.4557V14.25V13H88.1411H86.8265V14.25ZM90.8395 14.25V15.5H92.2234H93.6072V14.25V13H92.2234H90.8395V14.25Z" fill="#CBB26B"/>
</svg>
