<svg width="96" height="96" viewBox="0 0 96 96" fill="none" xmlns="http://www.w3.org/2000/svg">
<g clip-path="url(#clip0_1_56)">
<path d="M77.8084 28.6133L70.7428 21.5476C69.179 19.9977 67.0664 19.1281 64.8647 19.1281H31.199C29.0022 19.1281 26.8795 20.0039 25.3209 21.5476L18.2553 28.6133H0.73967V66.5688H10.2397C12.8522 66.5688 14.96 64.461 14.9748 61.8633H16.3256L28.8834 73.2039C33.4701 76.9297 39.8381 77.0188 44.5584 73.768C46.4139 75.3711 48.4178 76.1282 50.6592 76.1282C53.3608 76.1282 55.899 75.0297 57.903 72.5657C61.1834 73.8571 65.0576 72.9516 67.403 70.0719L71.292 65.2774C72.1233 64.2531 72.6428 63.0805 72.91 61.8633H81.5045C81.5194 64.461 83.642 66.5688 86.2397 66.5688H95.7397V28.6133H77.8084ZM7.86467 61.8188C6.55842 61.8188 5.48967 60.75 5.48967 59.4438C5.48967 58.1375 6.55842 57.0688 7.86467 57.0688C9.17092 57.0688 10.2397 58.1375 10.2397 59.4438C10.2397 60.7649 9.17092 61.8188 7.86467 61.8188ZM65.7553 60.7946L61.8811 65.5742C61.4655 66.0789 60.7233 66.168 60.2037 65.7524L56.6561 62.8727L52.203 68.2907C51.3123 69.3743 49.9764 69.0032 49.5311 68.6469L44.0686 63.9711L41.753 66.8211C39.6897 69.3594 35.9342 69.7453 33.5444 67.8008L19.1014 54.7383H14.9897V35.7234H21.2092L30.3678 26.5797C30.6647 26.4609 30.917 26.357 31.2139 26.2383H39.6303L33.8858 31.5078C29.5217 35.5008 29.2694 42.2398 33.2326 46.5445C35.4295 48.9492 42.317 52.6602 48.299 47.1977L49.5162 46.0844L65.5772 59.1172C66.0819 59.5328 66.1561 60.2899 65.7553 60.7946ZM81.4897 54.7383H71.2178C70.8764 54.3227 70.4905 53.9367 70.0748 53.5953L54.8303 41.2156L56.6858 39.5234C57.6506 38.6328 57.7248 37.1336 56.8342 36.1687L55.2162 34.432C54.3256 33.4672 52.8264 33.4078 51.8615 34.2836L43.6678 41.7945C42.2576 43.0859 39.853 43.1898 38.5319 41.7945C37.1514 40.325 37.2701 38.0687 38.71 36.7625L48.4475 27.8414C49.5459 26.832 50.9709 26.2828 52.4553 26.2828L64.8795 26.2531C65.1912 26.2531 65.4881 26.3719 65.6959 26.5945L74.8545 35.7383H81.4897V54.7383ZM88.6147 61.8188C87.3084 61.8188 86.2397 60.75 86.2397 59.4438C86.2397 58.1375 87.3084 57.0688 88.6147 57.0688C89.9209 57.0688 90.9897 58.1375 90.9897 59.4438C90.9897 60.7649 89.9209 61.8188 88.6147 61.8188Z" fill="#C2AB92"/>
</g>
<defs>
<clipPath id="clip0_1_56">
<rect width="95" height="95" fill="white" transform="translate(0.73967 0.128098)"/>
</clipPath>
</defs>
</svg>
