<svg width="76" height="76" viewBox="0 0 76 76" fill="none" xmlns="http://www.w3.org/2000/svg">
<g clip-path="url(#clip0_3_58)">
<path d="M74.9238 20.2581L39.0361 0.272261C38.3928 -0.086766 37.6149 -0.086766 36.9866 0.272261L1.08396 20.2581C0.24623 20.7218 -0.172635 21.7092 0.0667164 22.6366C0.306068 23.5641 1.1438 24.2223 2.11616 24.2223H5.30252V73.8877C5.30252 75.0546 6.24497 75.997 7.41181 75.997H68.581C69.7478 75.997 70.6903 75.0546 70.6903 73.8877V24.2223H73.8767C74.8341 24.2223 75.6718 23.5791 75.9261 22.6366C76.1804 21.7092 75.7617 20.7368 74.9238 20.2581ZM38.0039 4.5357L65.7686 20.0038H10.2391L38.0039 4.5357ZM41.295 71.7784H34.7128V58.0157H41.295V71.7784ZM66.4868 71.7784H66.4719H45.5137V55.9065C45.5137 54.7396 44.5712 53.7972 43.4044 53.7972H32.6037C31.4368 53.7972 30.4944 54.7396 30.4944 55.9065V71.7784H9.5362V24.2223H66.4868V71.7784Z" fill="#C2AB92"/>
<path d="M25.3332 31.4478H16.8961C15.7293 31.4478 14.7868 32.3902 14.7868 33.557V41.9942C14.7868 43.146 15.7293 44.1035 16.8961 44.1035H25.3332C26.5001 44.1035 27.4425 43.161 27.4425 41.9942V33.557C27.4427 32.3902 26.5002 31.4478 25.3332 31.4478ZM23.2241 39.8699H19.0055V35.6514H23.2241V39.8699Z" fill="#C2AB92"/>
<path d="M42.2225 31.4478H33.7853C32.6185 31.4478 31.676 32.3902 31.676 33.557V41.9942C31.676 43.146 32.6185 44.1035 33.7853 44.1035H42.2225C43.3893 44.1035 44.3317 43.161 44.3317 41.9942V33.557C44.3319 32.3902 43.3894 31.4478 42.2225 31.4478ZM40.1133 39.8699H35.8948V35.6514H40.1133V39.8699Z" fill="#C2AB92"/>
<path d="M59.1118 31.4478H50.6747C49.5079 31.4478 48.5654 32.3902 48.5654 33.557V41.9942C48.5654 43.146 49.5079 44.1035 50.6747 44.1035H59.1118C60.2787 44.1035 61.2211 43.161 61.2211 41.9942V33.557C61.221 32.3902 60.2787 31.4478 59.1118 31.4478ZM57.0024 39.8699H52.7838V35.6514H57.0024V39.8699Z" fill="#C2AB92"/>
<path d="M25.3332 51.8973H16.8961C15.7293 51.8973 14.7868 52.8398 14.7868 54.0066V62.4438C14.7868 63.6106 15.7293 64.568 16.8961 64.568H25.3332C26.5001 64.568 27.4425 63.6255 27.4425 62.4587V54.0066C27.4427 52.8398 26.5002 51.8973 25.3332 51.8973ZM23.2241 60.3345H19.0055V56.1159H23.2241V60.3345Z" fill="#C2AB92"/>
<path d="M59.1118 51.8973H50.6747C49.5079 51.8973 48.5654 52.8398 48.5654 54.0066V62.4438C48.5654 63.6106 49.5079 64.568 50.6747 64.568H59.1118C60.2787 64.568 61.2211 63.6255 61.2211 62.4587V54.0066C61.221 52.8398 60.2787 51.8973 59.1118 51.8973ZM57.0024 60.3345H52.7838V56.1159H57.0024V60.3345Z" fill="#C2AB92"/>
</g>
<defs>
<clipPath id="clip0_3_58">
<rect width="76" height="76" fill="white"/>
</clipPath>
</defs>
</svg>
